<svg xmlns="http://www.w3.org/2000/svg" width="30" height="28.965" viewBox="0 0 30 28.965"><g transform="translate(-12.45 -12.5)"><path d="M32.617,12.653c-.159.148-.165.178-.165.835,0,.983.033,1.011,1.165,1.011h.835v1l-2.89.017-2.89.017-.206.147a2.847,2.847,0,0,0-.609.952l-.4.805v.608a19.028,19.028,0,0,0,1.162,4.4c.286.885.6,1.057,1.9,1.057h.941v7h-5c0,.047-13.11-.015-13.033.032l-.28.189a2.085,2.085,0,0,0-.469.469l-.189.28v9.061l.189.28a2.085,2.085,0,0,0,.469.469l.28.189H41.5l.269-.189a2.26,2.26,0,0,0,.458-.458l.189-.269V31.466l-.189-.28a2.085,2.085,0,0,0-.469-.469l-.28-.189-1.515-.019-1.515-.019V23.507l1.021-.02c1.38-.027,1.539-.129,1.88-1.214.9-2.864,1.1-3.636,1.1-4.241v-.6l-.368-.733c-.645-1.286-.378-1.2-3.823-1.2H35.451v-1H36.3c1.136,0,1.153-.015,1.153-.989,0-.653-.007-.689-.165-.846l-.165-.165H32.782l-.165.153m-9.008,1.964c-.172.062-.774.345-1.339.629-1,.5-1.036.514-1.353.474-.179-.022-1.446-.218-2.814-.434-2.855-.451-2.609-.456-2.989.061-.473.645-.523.588,1.337,1.535.875.446,1.6.82,1.613.832a1.386,1.386,0,0,1-.341.226c-.2.112-.813.477-1.364.81-1.541.933-1.266.869-2.283.527s-1.066-.336-1.387.11c-.383.532-.39.518.627,1.325,1.456,1.155.709,1.347,6.934-1.779,5.749-2.887,5.7-2.859,5.7-3.479,0-.733-1.326-1.206-2.343-.837M32.452,20v1.5H29.916l-.108-.391c-.059-.215-.258-.89-.443-1.5L29.031,18.5h3.421V20m4,0v1.5h-3v-3h3V20m4.333-1.172c-.053.18-.188.623-.3.984s-.268.888-.349,1.172l-.146.516H37.451v-3h3.43l-.1.328" transform="translate(0)" fill="#000000" fill-rule="evenodd"/></g></svg>