<svg xmlns="http://www.w3.org/2000/svg" width="30" height="18" viewBox="0 0 30 18"><path d="M24.024,70a5.986,5.986,0,0,0-2.177.4l-3.641-5.867A1.125,1.125,0,0,0,17.25,64h-3a.75.75,0,0,0-.75.75v.75a.75.75,0,0,0,.75.75h2.374l.7,1.125H12v-.75a.75.75,0,0,0-.75-.75H7.15A1.146,1.146,0,0,0,6,67.02a1.125,1.125,0,0,0,1.125,1.1H9.409L8.03,70.352A6,6,0,1,0,11.811,77.5H14.25a1.125,1.125,0,0,0,.957-.533l4.029-6.509.7,1.128A5.984,5.984,0,0,0,18,76.013,6.078,6.078,0,0,0,23.94,82a6,6,0,1,0,.083-12ZM8.754,73.458a3.743,3.743,0,0,1,.921,1.792H7.644ZM6,79.75a3.75,3.75,0,1,1,.8-7.413L4.668,75.783A1.126,1.126,0,0,0,5.625,77.5H9.436A3.755,3.755,0,0,1,6,79.75Zm7.623-4.5h-1.67A5.988,5.988,0,0,0,9.967,71.5l1.16-1.874h5.979L13.623,75.25ZM23.8,79.745a3.747,3.747,0,0,1-2.639-6.188l2.083,3.356a.75.75,0,0,0,1.033.242l.637-.4a.75.75,0,0,0,.242-1.033l-2.084-3.358a3.75,3.75,0,1,1,.729,7.378Z" transform="translate(0 -64)" fill="#000000"/></svg>