<svg id="svg" xmlns="http://www.w3.org/2000/svg" xmlns:xlink="http://www.w3.org/1999/xlink" width="400" height="400" viewBox="0, 0, 400,400"><g id="svgg"><path id="path0" d="M240.800 54.119 C 236.978 55.663,234.854 60.160,236.629 62.950 C 237.666 64.582,241.509 65.600,246.652 65.604 C 259.465 65.616,265.676 72.466,262.765 83.373 C 259.441 95.828,259.450 99.749,262.824 109.671 C 267.082 122.189,266.960 132.525,262.449 141.544 C 261.223 143.995,259.773 147.440,259.228 149.200 C 258.172 152.607,252.922 164.145,250.310 168.800 C 249.445 170.340,247.853 173.498,246.771 175.818 C 242.120 185.793,234.059 193.215,223.478 197.268 C 211.716 201.772,209.885 202.270,203.253 202.763 C 191.193 203.660,175.292 199.544,168.647 193.805 C 166.192 191.686,161.001 180.507,159.636 174.400 C 158.898 171.100,157.576 166.780,156.698 164.800 C 155.820 162.820,154.406 158.223,153.555 154.584 C 152.704 150.946,151.145 145.906,150.090 143.384 C 149.036 140.863,147.733 136.654,147.195 134.031 C 146.657 131.409,145.208 126.729,143.975 123.631 C 138.322 109.428,140.410 104.374,152.414 103.199 C 160.840 102.374,163.731 98.806,158.139 96.135 C 154.878 94.576,127.753 91.304,115.838 91.032 C 103.592 90.752,102.777 91.182,102.839 97.881 C 102.914 105.819,107.171 109.339,117.675 110.149 C 127.995 110.945,131.543 114.549,134.079 126.812 C 135.776 135.019,135.312 141.404,132.754 145.039 C 123.290 158.490,117.447 164.369,113.421 164.489 C 111.683 164.542,110.642 164.256,110.921 163.804 C 111.207 163.341,110.728 163.242,109.730 163.559 C 107.820 164.165,104.520 162.701,105.225 161.560 C 105.706 160.781,104.673 160.507,102.200 160.758 C 101.430 160.836,100.800 160.549,100.800 160.120 C 100.800 159.691,99.720 159.510,98.400 159.718 C 97.036 159.933,96.000 159.739,96.000 159.268 C 96.000 158.766,95.007 158.639,93.476 158.945 C 91.689 159.302,91.116 159.183,91.515 158.537 C 91.916 157.889,91.334 157.773,89.515 158.137 C 88.052 158.430,87.142 158.339,87.396 157.925 C 87.642 157.523,85.130 157.103,81.757 156.983 C 78.034 156.851,75.431 156.385,75.049 155.783 C 74.558 155.011,74.422 155.014,74.412 155.800 C 74.406 156.350,73.680 156.800,72.800 156.800 C 71.920 156.800,71.194 156.350,71.188 155.800 C 71.179 155.077,70.982 155.106,70.476 155.904 C 69.956 156.726,68.783 156.871,65.888 156.471 C 62.937 156.063,62.289 156.149,63.200 156.827 C 64.122 157.513,63.660 157.606,61.200 157.230 C 58.733 156.853,58.275 156.946,59.200 157.638 C 60.139 158.340,59.826 158.436,57.760 158.079 C 55.897 157.758,55.286 157.893,55.685 158.537 C 56.086 159.186,55.409 159.313,53.339 158.978 C 51.739 158.718,50.221 158.843,49.966 159.256 C 49.711 159.668,48.570 159.772,47.432 159.486 C 45.889 159.099,45.519 159.222,45.981 159.969 C 46.422 160.682,46.168 160.837,45.100 160.504 C 44.275 160.247,43.060 160.383,42.400 160.806 C 41.740 161.229,41.550 161.581,41.978 161.588 C 42.406 161.594,41.976 162.147,41.022 162.815 C 40.068 163.483,38.998 163.980,38.644 163.920 C 36.987 163.638,35.955 164.081,36.440 164.865 C 36.759 165.382,36.375 165.667,35.487 165.573 C 33.074 165.318,31.879 165.558,32.286 166.216 C 32.495 166.554,31.347 167.694,29.733 168.748 C 27.301 170.338,26.996 170.404,27.947 169.133 C 28.578 168.290,27.948 168.792,26.548 170.248 C 25.148 171.704,23.633 172.668,23.181 172.389 C 22.730 172.109,22.459 172.301,22.580 172.815 C 22.701 173.329,22.080 174.165,21.200 174.674 C 20.320 175.184,19.336 175.960,19.012 176.400 C 18.689 176.840,18.419 176.910,18.412 176.555 C 18.406 176.201,17.455 176.921,16.300 178.155 C 15.145 179.390,14.689 179.680,15.286 178.800 C 16.361 177.217,16.353 177.216,14.586 178.724 C 12.698 180.335,12.183 181.276,13.704 180.336 C 14.257 179.994,14.451 180.208,14.204 180.889 C 13.982 181.500,13.408 181.914,12.929 181.810 C 12.450 181.705,12.263 182.155,12.514 182.810 C 12.766 183.464,13.314 184.000,13.733 184.000 C 14.152 184.000,14.274 183.644,14.006 183.209 C 13.726 182.756,14.046 182.621,14.754 182.893 C 15.434 183.154,15.812 183.656,15.594 184.009 C 15.376 184.362,15.918 184.462,16.799 184.232 C 17.680 184.002,18.400 184.182,18.400 184.632 C 18.400 185.082,19.176 185.247,20.125 184.999 C 21.307 184.690,21.670 184.840,21.278 185.474 C 20.963 185.983,21.087 186.445,21.553 186.500 C 24.437 186.840,25.628 187.797,25.048 189.306 C 24.784 189.997,25.069 190.880,25.683 191.268 C 26.482 191.774,26.515 191.979,25.800 191.988 C 25.250 191.994,24.793 192.630,24.785 193.400 C 24.776 194.170,22.943 198.220,20.711 202.400 C 18.479 206.580,15.156 214.320,13.327 219.600 L 10.000 229.200 10.053 243.200 L 10.106 257.200 13.379 266.800 C 20.832 288.664,34.642 303.921,52.815 310.367 C 55.667 311.379,59.980 312.943,62.400 313.843 C 68.545 316.127,93.571 316.294,99.200 314.088 C 101.180 313.312,105.297 311.794,108.349 310.714 C 123.749 305.266,140.344 289.416,147.551 273.272 C 150.817 265.956,150.690 266.000,168.690 266.000 C 189.027 266.000,190.633 265.155,197.052 251.068 C 199.600 245.477,202.062 242.702,205.600 241.429 C 211.627 239.261,233.333 218.112,240.886 207.050 C 242.594 204.547,244.361 202.271,244.811 201.993 C 245.262 201.715,246.565 199.622,247.706 197.343 C 248.848 195.065,250.243 192.660,250.805 192.000 C 251.367 191.340,254.259 186.064,257.230 180.276 C 264.074 166.941,267.700 164.858,270.868 172.439 C 273.883 179.655,272.116 185.729,264.321 194.946 C 257.469 203.047,254.693 207.526,251.769 215.200 C 250.512 218.500,248.893 222.640,248.173 224.400 C 246.283 229.016,246.312 258.078,248.211 262.800 C 254.457 278.332,257.809 284.163,266.250 294.187 C 271.773 300.746,271.722 300.562,272.383 316.284 C 273.299 338.077,276.595 340.800,302.053 340.800 C 324.049 340.800,327.203 339.256,329.959 327.138 C 332.027 318.049,335.648 314.181,345.406 310.639 C 366.207 303.089,381.834 284.348,389.276 258.026 C 390.802 252.631,390.790 233.706,389.258 228.374 C 381.849 202.589,368.895 186.663,347.188 176.651 C 332.818 170.023,332.762 160.800,347.091 160.800 C 362.347 160.800,364.905 159.396,366.396 150.201 C 366.914 147.010,368.197 141.160,369.248 137.200 C 370.300 133.240,371.538 126.622,372.000 122.494 C 372.462 118.365,373.182 113.505,373.600 111.694 C 374.865 106.215,374.575 101.193,372.871 99.089 L 371.342 97.200 336.189 96.976 C 302.411 96.761,300.961 96.813,299.118 98.304 L 297.200 99.856 296.800 122.607 C 296.392 145.818,296.267 146.735,293.200 148.988 C 288.368 152.537,284.740 145.791,276.962 118.800 C 276.075 115.720,274.738 111.580,273.990 109.600 C 271.872 103.985,271.545 94.118,273.197 85.614 C 276.218 70.060,272.334 61.569,259.600 55.891 C 255.605 54.110,243.618 52.980,240.800 54.119 M362.983 106.621 C 366.070 109.713,365.920 118.202,362.549 131.200 C 361.237 136.260,359.916 142.169,359.613 144.330 C 359.225 147.106,358.396 148.927,356.793 150.530 L 354.523 152.800 337.062 152.780 C 307.009 152.747,304.699 151.147,304.152 130.000 C 303.467 103.535,302.814 104.047,336.983 104.255 L 360.766 104.400 362.983 106.621 M143.895 159.649 C 144.782 160.775,145.904 163.745,146.389 166.249 C 146.874 168.752,148.360 173.634,149.690 177.098 C 151.194 181.012,152.270 185.555,152.534 189.098 C 152.826 193.018,153.469 195.525,154.591 197.119 C 157.762 201.622,157.133 210.400,153.640 210.400 C 151.696 210.400,149.638 206.736,149.505 203.040 L 149.411 200.400 148.800 202.800 L 148.189 205.200 148.095 202.662 C 148.033 201.002,147.182 199.305,145.636 197.759 C 144.336 196.459,143.487 195.179,143.750 194.916 C 144.014 194.653,143.624 194.206,142.885 193.922 C 142.146 193.638,140.984 192.330,140.304 191.015 C 139.554 189.565,139.440 188.854,140.014 189.208 C 141.493 190.123,139.580 186.895,137.844 185.548 C 136.578 184.566,136.588 184.648,137.924 186.214 C 138.762 187.196,139.256 188.000,139.020 188.000 C 138.785 188.000,137.217 186.290,135.536 184.200 C 133.855 182.110,133.199 180.940,134.079 181.600 C 135.209 182.448,135.154 182.296,133.890 181.082 C 132.907 180.138,132.259 179.148,132.451 178.882 C 132.643 178.617,132.557 178.583,132.259 178.807 C 131.277 179.547,128.096 175.882,128.594 174.584 C 128.870 173.863,128.736 173.545,128.275 173.830 C 126.884 174.690,128.585 165.471,130.226 163.257 C 134.078 158.060,141.172 156.187,143.895 159.649 M317.400 160.677 C 322.266 163.325,321.979 158.366,322.219 243.894 C 322.497 342.740,324.625 333.200,302.297 333.200 C 279.078 333.200,281.255 341.939,280.971 247.600 C 280.704 159.375,280.410 162.319,289.735 159.946 C 293.708 158.936,315.246 159.505,317.400 160.677 M347.562 191.988 C 369.225 202.521,383.155 237.414,374.487 259.433 C 373.238 262.605,371.759 266.640,371.200 268.400 C 369.248 274.544,359.855 285.989,352.286 291.444 C 340.296 300.087,331.942 298.712,330.820 287.912 C 329.722 277.343,330.698 196.599,331.953 194.145 C 334.384 189.393,340.488 188.549,347.562 191.988 M146.791 197.684 C 147.667 198.738,148.477 199.750,148.591 199.933 C 148.706 200.117,148.800 199.679,148.800 198.961 C 148.800 198.244,147.990 197.231,147.000 196.712 L 145.200 195.767 146.791 197.684 M46.983 201.819 C 47.775 201.515,48.062 201.653,47.736 202.180 C 47.446 202.649,47.766 203.246,48.446 203.507 C 49.216 203.803,49.480 203.653,49.145 203.111 C 48.766 202.498,49.099 202.504,50.269 203.130 C 51.183 203.619,52.282 204.645,52.709 205.410 C 53.137 206.174,53.783 206.746,54.144 206.680 C 54.505 206.614,54.701 206.911,54.580 207.339 C 54.459 207.768,54.666 207.930,55.039 207.700 C 56.010 207.099,68.175 219.545,67.424 220.371 C 67.081 220.748,67.253 220.796,67.806 220.478 C 68.414 220.127,69.026 220.471,69.356 221.349 C 69.656 222.147,70.463 223.277,71.150 223.859 C 71.838 224.442,71.954 224.693,71.409 224.418 C 70.758 224.089,70.581 224.341,70.893 225.154 C 71.154 225.834,71.664 226.208,72.026 225.984 C 74.071 224.720,74.478 232.781,72.665 238.660 C 69.720 248.213,73.728 251.444,90.749 253.237 C 96.562 253.850,106.198 255.442,112.162 256.776 C 118.126 258.109,123.805 259.200,124.782 259.200 C 144.041 259.200,126.079 287.649,100.000 298.451 L 91.600 301.930 80.000 301.965 L 68.400 302.000 59.564 298.373 C 22.276 283.066,9.144 236.975,33.632 207.360 C 37.860 202.246,44.292 199.196,45.452 201.755 C 45.590 202.060,46.279 202.089,46.983 201.819 M60.800 214.000 C 63.635 216.860,66.134 219.200,66.354 219.200 C 66.574 219.200,64.435 216.860,61.600 214.000 C 58.765 211.140,56.266 208.800,56.046 208.800 C 55.826 208.800,57.965 211.140,60.800 214.000 M214.400 211.957 C 218.488 214.825,217.575 217.329,210.042 223.905 C 197.786 234.605,195.402 234.739,178.447 225.689 C 173.232 222.906,171.224 215.819,174.478 211.682 L 176.157 209.548 194.278 210.051 C 209.724 210.480,212.695 210.761,214.400 211.957 M154.074 212.117 C 154.554 212.485,155.242 212.519,155.602 212.193 C 155.962 211.867,155.998 212.049,155.683 212.597 C 155.149 213.526,150.400 211.915,150.400 210.805 C 150.400 210.344,152.946 211.254,154.074 212.117 M161.155 218.578 C 162.727 220.823,162.725 221.961,161.144 223.541 C 159.339 225.347,156.800 223.821,156.800 220.932 C 156.800 216.993,159.153 215.721,161.155 218.578 M268.758 223.958 C 274.208 229.408,272.993 261.917,267.284 263.410 C 258.999 265.576,255.893 230.205,263.820 223.970 C 266.303 222.017,266.816 222.016,268.758 223.958 " stroke="none" fill="#000000" fill-rule="evenodd"></path></g></svg>