<?xml version="1.0" encoding="UTF-8" standalone="no"?>
<svg
   xmlns:dc="http://purl.org/dc/elements/1.1/"
   xmlns:cc="http://creativecommons.org/ns#"
   xmlns:rdf="http://www.w3.org/1999/02/22-rdf-syntax-ns#"
   xmlns:svg="http://www.w3.org/2000/svg"
   xmlns="http://www.w3.org/2000/svg"
   height="400"
   width="400"
   version="1.1"
   id="svg">
  <g
     transform="translate(0.32318532,3.1930226)"
     id="svgg">
    <path
       style="fill:#000000;fill-rule:evenodd;stroke:none"
       d="m 357,124.2 v 21.4 h 21.4 21.4 V 124.2 102.8 H 378.4 357 v 21.4 M 71.6,156.337 c -45.812,2.096 -69.338,22.469 -71.431,61.859 -1.865,35.095 14.232,58.251 46.023,66.207 12.664,3.169 19.696,3.582 61.158,3.591 L 132.6,288 v -20.694 -20.695 l -32.65,-0.067 c -29.115,-0.06 -32.803,-0.102 -34.065,-0.389 -8.798,-1.999 -14.49,-7.491 -16.847,-16.255 -0.755,-2.809 -0.816,-12.568 -0.094,-15.135 2.022,-7.188 7.234,-12.735 14.148,-15.056 3.101,-1.041 1.053,-0.982 36.558,-1.053 L 132.6,198.59 V 177.395 156.2 l -29.85,0.039 c -16.417,0.021 -30.435,0.065 -31.15,0.098 m 71.85,65.701 0.05,65.862 21.249,0.051 21.25,0.051 0.05,-37.103 0.051,-37.103 2.6,2.942 c 1.43,1.618 7.91,8.888 14.4,16.154 6.49,7.267 17.062,19.106 23.493,26.31 16.462,18.441 18.383,20.2 26.515,24.278 8.004,4.013 11.691,4.51 33.542,4.516 L 300,288 v -23.201 -23.2 l 28.55,0.05 28.55,0.051 0.051,23.151 0.051,23.151 21.149,-0.051 21.149,-0.051 0.05,-65.85 0.051,-65.85 H 378.4 357.2 v 22 22 H 328.6 300 v -22 -22 h -21.3 -21.3 v 37.9 c 0,20.845 -0.068,37.895 -0.15,37.888 -0.082,-0.007 -1.246,-1.386 -2.585,-3.064 -4.889,-6.129 -28.883,-34.681 -45.652,-54.324 -9.868,-11.56 -15.055,-15.321 -23.713,-17.191 -4.93,-1.066 -4.964,-1.067 -24.05,-1.153 l -17.851,-0.079 0.051,65.861"
       id="path0" />
  </g>
</svg>
