<?xml version="1.0" encoding="UTF-8" standalone="no"?>
<svg
   xmlns:dc="http://purl.org/dc/elements/1.1/"
   xmlns:cc="http://creativecommons.org/ns#"
   xmlns:rdf="http://www.w3.org/1999/02/22-rdf-syntax-ns#"
   xmlns:svg="http://www.w3.org/2000/svg"
   xmlns="http://www.w3.org/2000/svg"
   id="svg64"
   version="1.1"
   viewBox="0 0 1356 1356"
   height="1356"
   width="1356">
  <metadata
     id="metadata70">
    <rdf:RDF>
      <cc:Work
         rdf:about="">
        <dc:format>image/svg+xml</dc:format>
        <dc:type
           rdf:resource="http://purl.org/dc/dcmitype/StillImage" />
        <dc:title></dc:title>
      </cc:Work>
    </rdf:RDF>
  </metadata>
  <defs
     id="defs68" />
  <g
     id="g62"
     transform="translate(-401,40.999988)">
    <g
       id="g8"
       transform="translate(0,9)">
      <path
         style="fill:#8b8b8b"
         id="path2"
         transform="rotate(-90,1164.5,-472.5)"
         d="M 60,0 A 59.974,59.974 0 0 0 8.027,30 H 60 A 30,30 0 1 1 37.64,40 H 3.414 A 60.062,60.062 0 1 0 60,0 Z" />
      <rect
         style="fill:#8b8b8b"
         y="0"
         x="0"
         id="rect4"
         transform="translate(1637,734)"
         rx="15"
         height="30"
         width="30" />
      <rect
         style="fill:#8b8b8b"
         y="0"
         x="0"
         id="rect6"
         transform="translate(1637,632)"
         height="117"
         width="30" />
    </g>
    <g
       id="g16"
       transform="translate(0,9)">
      <path
         style="fill:#8b8b8b"
         id="path10"
         transform="rotate(-90,1097,-405)"
         d="M 60,0 A 59.974,59.974 0 0 0 8.027,30 H 60 A 30,30 0 1 1 37.64,40 H 3.414 A 60.062,60.062 0 1 0 60,0 Z" />
      <rect
         style="fill:#8b8b8b"
         y="0"
         x="0"
         id="rect12"
         transform="translate(1502,734)"
         rx="15"
         height="30"
         width="30" />
      <rect
         style="fill:#8b8b8b"
         y="0"
         x="0"
         id="rect14"
         transform="translate(1502,632)"
         height="117"
         width="30" />
    </g>
    <path
       style="fill:#8b8b8b"
       id="path18"
       transform="translate(-2657,-561.999)"
       d="m 4084,1261 a 59.993,59.993 0 1 1 55.837,-38 H 4114 v -22 a 30,30 0 1 0 -10,22.362 v 34.224 a 59.85,59.85 0 0 1 -20,3.414 z" />
    <rect
       style="fill:#8b8b8b"
       y="0"
       x="0"
       id="rect20"
       transform="translate(1457,639)"
       height="45"
       width="30" />
    <rect
       style="fill:#8b8b8b"
       y="0"
       x="0"
       id="rect22"
       transform="translate(1457,669)"
       rx="15"
       height="30"
       width="30" />
    <rect
       style="fill:#8b8b8b"
       y="0"
       x="0"
       id="rect24"
       transform="translate(1322,669)"
       rx="15"
       height="30"
       width="30" />
    <rect
       style="fill:#3a3a3a"
       y="0"
       x="0"
       id="rect26"
       transform="rotate(180,605,346)"
       rx="15"
       height="200"
       width="30" />
    <rect
       style="fill:#3a3a3a"
       y="0"
       x="0"
       id="rect28"
       transform="matrix(-0.656,-0.755,0.755,-0.656,1195.37,650.927)"
       rx="15"
       height="136"
       width="30" />
    <path
       style="fill:#3a3a3a"
       id="path30"
       transform="rotate(139,526.51399,583.90304)"
       d="M 15,0 V 0 A 15,15 0 0 1 30,15 V 85 H 0 V 15 A 15,15 0 0 1 15,0 Z" />
    <rect
       style="fill:#3a3a3a"
       y="0"
       x="0"
       id="rect32"
       transform="translate(1120,662)"
       rx="15"
       height="30"
       width="30" />
    <rect
       style="fill:#3a3a3a"
       y="0"
       x="0"
       id="rect34"
       transform="translate(1120.3,572.3)"
       rx="15"
       height="30"
       width="30" />
    <path
       style="fill:#3a3a3a"
       id="path36"
       transform="translate(-2954,-594)"
       d="m 4089.391,1286 v 0 c -8.1,0 -21.348,-1.587 -28.744,-4.716 a 60.033,60.033 0 0 1 0,-110.569 c 7.394,-3.129 20.826,-4.416 28.928,-4.416 l 0.261,30.036 c -8,0 -21.367,2.788 -27.04,8.461 a 29.8,29.8 0 0 0 -8.8,21.2 c 0,16.542 18.881,30.015 35.423,30.015 l -0.031,29.984 z" />
    <path
       style="fill:#3a3a3a"
       id="path38"
       transform="translate(-3089,-568.999)"
       d="m 4084,1261 a 59.932,59.932 0 1 1 57.835,-43.97 c -0.18,0.65 -0.375,1.313 -0.582,1.969 H 4114 v -18 a 30,30 0 1 0 -10,22.362 v 34.223 a 59.833,59.833 0 0 1 -20,3.416 z" />
    <rect
       style="fill:#3a3a3a"
       y="0"
       x="0"
       id="rect40"
       transform="translate(1025,632)"
       height="45"
       width="30" />
    <rect
       style="fill:#3a3a3a"
       y="0"
       x="0"
       id="rect42"
       transform="translate(1025,662)"
       rx="15"
       height="30"
       width="30" />
    <path
       style="fill:#3a3a3a"
       id="path44"
       transform="translate(-3163,-569)"
       d="m 4024,1246 v -90 a 15,15 0 0 1 15,-15 h 29 a 15.000213,15.000213 0 0 1 0.16,30 h 0.84 v 0 a 15.063,15.063 0 0 0 -15,14.787 V 1246 a 15,15 0 0 1 -30,0 z m 30,-75 z" />
    <path
       style="fill:#3a3a3a"
       id="path46"
       transform="translate(-3293,-649)"
       d="m 4094,1326 v -155 0 14.787 A 15.063,15.063 0 0 0 4079,1171 h -40 a 15,15 0 0 1 0,-30 h 70 a 15,15 0 0 1 15,15 v 170 a 15,15 0 0 1 -30,0 z" />
    <path
       style="fill:#3a3a3a"
       id="path48"
       transform="rotate(-90,2113,2603)"
       d="m 4084,1261 a 59.974,59.974 0 0 1 -51.972,-30 H 4084 a 30,30 0 1 0 -22.359,-10 h -34.225 a 60.062,60.062 0 1 1 56.584,40 z" />
    <path
       style="fill:#3a3a3a"
       id="path50"
       transform="translate(-3373,-509)"
       d="m 4084,1291 a 59.946,59.946 0 0 1 -60,-59.8 v -0.013 c 0,-0.064 0,-0.128 0,-0.192 a 15,15 0 0 1 30,0 30,30 0 1 0 60,0 h 30 a 59.953,59.953 0 0 1 -60,60 z m 30,-60 c 0,-0.083 0,-0.163 0,-0.246 V 1141 h 30 v 90 z" />
    <g
       id="g58"
       transform="rotate(-90,785.5005,841.5005)">
      <path
         style="fill:#3a3a3a"
         id="path52"
         transform="translate(-3089,-568.999)"
         d="m 4084,1261 a 59.932,59.932 0 1 1 57.835,-43.97 c -0.18,0.65 -0.375,1.313 -0.582,1.969 H 4114 v -18 a 30,30 0 1 0 -10,22.362 v 34.223 a 59.833,59.833 0 0 1 -20,3.416 z" />
      <rect
         style="fill:#3a3a3a"
         y="0"
         x="0"
         id="rect54"
         transform="translate(1025,632)"
         height="45"
         width="30" />
      <rect
         style="fill:#3a3a3a"
         y="0"
         x="0"
         id="rect56"
         transform="translate(1025,662)"
         rx="15"
         height="30"
         width="30" />
    </g>
    <path
       style="fill:#3a3a3a"
       id="path60"
       transform="translate(-3623,-649)"
       d="m 4054,1341 h -15 a 15,15 0 0 1 -15,-15 v -170 a 15,15 0 1 1 30,0 v 140.213 a 15.064,15.064 0 0 0 15,14.787 h 40 a 15,15 0 1 1 0,30 z m 7.5,-30 z" />
  </g>
</svg>
