<svg xmlns="http://www.w3.org/2000/svg" width="30" height="23.28" viewBox="0 0 30 23.28"><g transform="translate(-16.876 -52.044)"><path d="M26.941,52.486a11.6,11.6,0,0,0-8.477,11.37V65.7h-.621c-.75,0-1.184.622-.858,1.231.307.574.661.653,2.935.653,2.331,0,2.747.211,2.4,1.216-.151.431-.356.579-.877.629-.875.085-1.44.851-1.1,1.49.219.41.409.433,3.587.433,3.672,0,4.165.12,4.165,1.012,0,.971-.3,1.081-2.93,1.081-2.55,0-2.93.122-2.93.942,0,.938.036.942,9.419.942s9.419,0,9.419-.942c0-.867-.326-.942-4.082-.942-3.857,0-4.082-.06-4.082-1.081,0-.7.5-1.012,1.619-1.012.921,0,1.312-.291,1.312-.976,0-.537-.551-.907-1.351-.907a.944.944,0,0,1-.756-1.439c.233-.436.348-.445,5.528-.445,5.827,0,6.09-.051,5.964-1.162l-.07-.618-1.76-.1-1.76-.1.04-1.674a11.692,11.692,0,0,0-14.731-11.43m10.69,17.306c-.913.913-.228,1.555,1.66,1.555,1.526,0,1.988-.2,1.988-.864,0-.716-.592-1.02-1.988-1.02-.931,0-1.429.1-1.66.329m5.659-.057a.894.894,0,0,0-.3.89l.07.618h1.755c1.959,0,2.452-.371,1.776-1.336-.368-.526-2.652-.644-3.3-.171" transform="translate(0 0)" fill="#000000" fill-rule="evenodd"/></g></svg>