<?xml version="1.0" encoding="UTF-8" standalone="no"?>
<svg
   xmlns:dc="http://purl.org/dc/elements/1.1/"
   xmlns:cc="http://creativecommons.org/ns#"
   xmlns:rdf="http://www.w3.org/1999/02/22-rdf-syntax-ns#"
   xmlns:svg="http://www.w3.org/2000/svg"
   xmlns="http://www.w3.org/2000/svg"
   id="svg4"
   version="1.1"
   viewBox="0 0 38.64 38.639998"
   height="38.639999"
   width="38.639999">
  <metadata
     id="metadata10">
    <rdf:RDF>
      <cc:Work
         rdf:about="">
        <dc:format>image/svg+xml</dc:format>
        <dc:type
           rdf:resource="http://purl.org/dc/dcmitype/StillImage" />
        <dc:title></dc:title>
      </cc:Work>
    </rdf:RDF>
  </metadata>
  <defs
     id="defs8" />
  <path
     style="fill:#000000"
     id="path2"
     d="M 11.22,7.6346581 22.47,30.674658 h -1.05 l -4.26,-8.58 H 5.13 l -4.2,8.58 H 0 Z m -0.09,2.07 L 5.52,21.224658 H 16.8 Z m 27.51,7.4699999 v 13.5 h -0.96 v -3.36 a 6.308,6.308 0 0 1 -2.52,2.7 6.973,6.973 0 0 1 -3.6,0.99 6.9,6.9 0 0 1 -5.04,-2.085 6.79,6.79 0 0 1 -2.1,-5 6.79,6.79 0 0 1 2.1,-5 6.9,6.9 0 0 1 5.04,-2.085 7.209,7.209 0 0 1 3.675,1.02 5.532,5.532 0 0 1 2.445,2.7 v -3.38 z m -13.26,6.78 a 5.967,5.967 0 0 0 1.845,4.365 5.984,5.984 0 0 0 4.375,1.845 5.838,5.838 0 0 0 4.34,-1.845 6.059,6.059 0 0 0 1.8,-4.38 6.083,6.083 0 0 0 -1.815,-4.4 5.847,5.847 0 0 0 -4.335,-1.86 5.921,5.921 0 0 0 -4.365,1.875 6.066,6.066 0 0 0 -1.845,4.4 z" />
</svg>
