<svg xmlns="http://www.w3.org/2000/svg" width="30" height="30" viewBox="0 0 30 30"><path d="M25.714,53.429c-.023,0-.045.007-.068.007l-2.625-4.374a4.134,4.134,0,0,0,0-4.122l2.625-4.374c.023,0,.045.007.068.007a4.286,4.286,0,1,0-3.691-6.429H7.977a4.273,4.273,0,1,0-5.834,5.834V54.023a4.273,4.273,0,1,0,5.834,5.835H22.023a4.278,4.278,0,1,0,3.692-6.429Zm-19.286.595V39.977a4.274,4.274,0,0,0,1.548-1.548H21.929l-2.575,4.292c-.023,0-.045-.007-.068-.007a4.286,4.286,0,0,0,0,8.571c.023,0,.045-.007.068-.007l2.575,4.292H7.977a4.269,4.269,0,0,0-1.548-1.548ZM18.214,47a1.071,1.071,0,1,1,1.071,1.071A1.073,1.073,0,0,1,18.214,47Zm8.571-10.714a1.071,1.071,0,1,1-1.071-1.071A1.073,1.073,0,0,1,26.786,36.286Zm-22.5-1.071a1.071,1.071,0,1,1-1.071,1.071A1.073,1.073,0,0,1,4.286,35.214Zm-1.071,22.5a1.071,1.071,0,1,1,1.071,1.071A1.073,1.073,0,0,1,3.214,57.714Zm22.5,1.071a1.071,1.071,0,1,1,1.071-1.071A1.073,1.073,0,0,1,25.714,58.786Z" transform="translate(0 -32)" fill="#000000"/></svg>