<?xml version="1.0" encoding="UTF-8" standalone="no"?>
<svg
   xmlns:dc="http://purl.org/dc/elements/1.1/"
   xmlns:cc="http://creativecommons.org/ns#"
   xmlns:rdf="http://www.w3.org/1999/02/22-rdf-syntax-ns#"
   xmlns:svg="http://www.w3.org/2000/svg"
   xmlns="http://www.w3.org/2000/svg"
   id="svg4"
   version="1.1"
   viewBox="0 0 34.62 34.619998"
   height="34.619999"
   width="34.619999">
  <metadata
     id="metadata10">
    <rdf:RDF>
      <cc:Work
         rdf:about="">
        <dc:format>image/svg+xml</dc:format>
        <dc:type
           rdf:resource="http://purl.org/dc/dcmitype/StillImage" />
        <dc:title></dc:title>
      </cc:Work>
    </rdf:RDF>
  </metadata>
  <defs
     id="defs8" />
  <path
     style="fill:#000000"
     id="path2"
     d="m 8.91,6.5098671 h 1.77 l 8.85,21.2999999 h -2.22 l -2.76,-6.66 H 4.98 l -2.73,6.66 H 0 Z M 14.07,19.499867 9.78,8.9698671 5.43,19.499867 Z m 11.79,8.61 a 5.522,5.522 0 0 1 -2.055,-0.375 5.186,5.186 0 0 1 -1.65,-1.035 4.68,4.68 0 0 1 -1.1,-1.545 4.671,4.671 0 0 1 -0.39,-1.905 3.849,3.849 0 0 1 0.48,-1.89 4.575,4.575 0 0 1 1.35,-1.5 6.61,6.61 0 0 1 2.07,-0.975 9.532,9.532 0 0 1 2.64,-0.345 14.419,14.419 0 0 1 2.435,0.21 10.533,10.533 0 0 1 2.19,0.6 v -1.41 a 4.537,4.537 0 0 0 -1.17,-3.285 4.287,4.287 0 0 0 -3.24,-1.215 6.885,6.885 0 0 0 -2.46,0.48 11.864,11.864 0 0 0 -2.55,1.38 l -0.72,-1.35 a 10.555,10.555 0 0 1 5.88,-2.04 6.309,6.309 0 0 1 4.62,1.65 6.1,6.1 0 0 1 1.68,4.56 v 7.05 q 0,0.84 0.75,0.84 v 1.8 a 4.863,4.863 0 0 1 -0.78,0.09 1.757,1.757 0 0 1 -1.215,-0.39 1.467,1.467 0 0 1 -0.465,-1.08 l -0.06,-1.23 a 7.089,7.089 0 0 1 -2.715,2.16 8.352,8.352 0 0 1 -3.525,0.75 z m 0.48,-1.56 a 7.053,7.053 0 0 0 2.925,-0.6 4.777,4.777 0 0 0 2.025,-1.59 1.869,1.869 0 0 0 0.405,-0.585 1.494,1.494 0 0 0 0.135,-0.585 v -2.55 a 12.5,12.5 0 0 0 -2.115,-0.6 11.84,11.84 0 0 0 -2.235,-0.21 6.218,6.218 0 0 0 -3.51,0.9 2.736,2.736 0 0 0 -1.35,2.37 3.237,3.237 0 0 0 0.285,1.35 3.421,3.421 0 0 0 0.78,1.1 3.653,3.653 0 0 0 1.185,0.735 4,4 0 0 0 1.47,0.265 z" />
</svg>
