<?xml version="1.0" encoding="UTF-8" standalone="no"?>
<svg
   xmlns:dc="http://purl.org/dc/elements/1.1/"
   xmlns:cc="http://creativecommons.org/ns#"
   xmlns:rdf="http://www.w3.org/1999/02/22-rdf-syntax-ns#"
   xmlns:svg="http://www.w3.org/2000/svg"
   xmlns="http://www.w3.org/2000/svg"
   id="svg4"
   version="1.1"
   viewBox="0 0 34 34"
   height="34"
   width="34">
  <metadata
     id="metadata10">
    <rdf:RDF>
      <cc:Work
         rdf:about="">
        <dc:format>image/svg+xml</dc:format>
        <dc:type
           rdf:resource="http://purl.org/dc/dcmitype/StillImage" />
        <dc:title></dc:title>
      </cc:Work>
    </rdf:RDF>
  </metadata>
  <defs
     id="defs8" />
  <path
     style="fill:#000000"
     id="path2"
     d="M 29,25 H 5 A 5.006,5.006 0 0 1 0,20 V 14 A 5.006,5.006 0 0 1 5,9 h 24 a 5.006,5.006 0 0 1 5,5 v 6 a 5.006,5.006 0 0 1 -5,5 z M 18.564,22 v 0 l 1.392,1.413 h 3.311 l -2.66,-2.555 a 1.029,1.029 0 0 0 0.1,-0.093 c 0.028,-0.031 0.059,-0.061 0.091,-0.094 v 0 a 5.594,5.594 0 0 0 1.443,-3.992 5.428,5.428 0 0 0 -1.392,-3.882 4.778,4.778 0 0 0 -3.632,-1.473 5,5 0 0 0 -3.824,1.539 5.692,5.692 0 0 0 -1.442,4.029 5.322,5.322 0 0 0 1.421,3.829 4.912,4.912 0 0 0 3.676,1.466 5.927,5.927 0 0 0 1.515,-0.184 z M 3.718,19.253 v 2.343 a 4.981,4.981 0 0 0 1.351,0.44 8.917,8.917 0 0 0 1.645,0.147 7.739,7.739 0 0 0 1.6,-0.161 3.947,3.947 0 0 0 1.329,-0.531 2.717,2.717 0 0 0 0.905,-0.966 3,3 0 0 0 0.333,-1.476 3.025,3.025 0 0 0 -0.19,-1.117 2.612,2.612 0 0 0 -0.55,-0.853 4,4 0 0 0 -0.86,-0.67 9.149,9.149 0 0 0 -1.131,-0.56 C 7.861,15.73 7.583,15.606 7.322,15.479 a 4.281,4.281 0 0 1 -0.623,-0.366 1.61,1.61 0 0 1 -0.4,-0.4 0.845,0.845 0 0 1 -0.139,-0.473 0.785,0.785 0 0 1 0.125,-0.435 1.07,1.07 0 0 1 0.352,-0.334 1.883,1.883 0 0 1 0.557,-0.215 3.22,3.22 0 0 1 0.732,-0.077 4.683,4.683 0 0 1 0.619,0.044 4.683,4.683 0 0 1 0.656,0.136 4.586,4.586 0 0 1 0.641,0.23 3.593,3.593 0 0 1 0.575,0.323 v -2.19 a 5.831,5.831 0 0 0 -1.169,-0.3 9.539,9.539 0 0 0 -1.454,-0.1 6.831,6.831 0 0 0 -1.583,0.18 4.055,4.055 0 0 0 -1.314,0.56 2.814,2.814 0 0 0 -0.9,0.97 2.873,2.873 0 0 0 -0.329,1.41 2.743,2.743 0 0 0 0.6,1.787 4.6,4.6 0 0 0 1.835,1.252 c 0.321,0.132 0.624,0.262 0.9,0.389 a 5.032,5.032 0 0 1 0.722,0.4 1.9,1.9 0 0 1 0.48,0.447 0.912,0.912 0 0 1 0.176,0.55 0.845,0.845 0 0 1 -0.11,0.42 A 0.974,0.974 0 0 1 7.938,20.024 1.818,1.818 0 0 1 7.38,20.247 3.332,3.332 0 0 1 6.601,20.328 4.461,4.461 0 0 1 5.092,20.061 4.517,4.517 0 0 1 3.718,19.253 Z M 23.985,11.496 V 22 H 30.24 V 20.081 H 26.35 V 11.5 Z m -6.892,8.644 a 2.355,2.355 0 0 1 -1.919,-0.908 3.836,3.836 0 0 1 -0.732,-2.469 3.89,3.89 0 0 1 0.732,-2.468 2.4,2.4 0 0 1 1.978,-0.937 2.269,2.269 0 0 1 1.9,0.908 4.141,4.141 0 0 1 0.7,2.542 3.831,3.831 0 0 1 -0.718,2.453 2.385,2.385 0 0 1 -1.942,0.879 z" />
</svg>
