<svg xmlns="http://www.w3.org/2000/svg" width="30" height="24" viewBox="0 0 30 24"><path d="M27,10.5a2.991,2.991,0,0,0-1.533.431,3.738,3.738,0,0,0-7.392-.422c-.023,0-.047-.009-.075-.009a3,3,0,0,0,0,6h9a3,3,0,0,0,0-6ZM20.128,18H18a4.461,4.461,0,0,1-2.747-.961,6,6,0,1,1,.989-9.277,5.878,5.878,0,0,1,.848,1.1A5.28,5.28,0,0,1,20.025,6.3l.652-1.955A.81.81,0,0,0,19.65,3.323l-4.706,1.57L12.727.45a.812.812,0,0,0-1.453,0L9.056,4.889,4.345,3.319A.81.81,0,0,0,3.319,4.345l1.57,4.706L.45,11.273a.812.812,0,0,0,0,1.453l4.439,2.217-1.57,4.711a.81.81,0,0,0,1.027,1.027l4.706-1.57,2.217,4.439a.812.812,0,0,0,1.453,0l2.217-4.439,4.706,1.57a.81.81,0,0,0,1.027-1.027ZM15.792,9.6a4.517,4.517,0,1,0-1.584,6.3,4.455,4.455,0,0,1,1.584-6.3Z" fill="#000000"/></svg>