<?xml version="1.0" encoding="UTF-8" standalone="no"?>
<svg
   xmlns:dc="http://purl.org/dc/elements/1.1/"
   xmlns:cc="http://creativecommons.org/ns#"
   xmlns:rdf="http://www.w3.org/1999/02/22-rdf-syntax-ns#"
   xmlns:svg="http://www.w3.org/2000/svg"
   xmlns="http://www.w3.org/2000/svg"
   height="150"
   width="150"
   version="1.1"
   id="svg">
  <g
     transform="scale(0.37394068)"
     id="svgg">
    <path
       style="fill:#000000;fill-rule:evenodd;stroke:none"
       d="m 176,45.17 v 45.17 l -12,1.799 c -6.6,0.99 -12,2.591 -12,3.557 0,0.967 -4.5,4.125 -10,7.018 -5.5,2.893 -11.568,7.366 -13.485,9.94 -1.916,2.573 -5.216,4.679 -7.333,4.679 -2.117,0 -3.849,1.732 -3.849,3.849 0,2.117 -2.106,5.417 -4.679,7.333 -2.574,1.917 -7.047,7.985 -9.94,13.485 -2.893,5.5 -6.051,10 -7.018,10 -0.966,0 -2.567,5.4 -3.557,12 L 90.34,176 H 45.17 0 v 24 24 h 45.17 45.17 l 1.799,12 c 0.99,6.6 2.591,12 3.557,12 0.967,0 4.125,4.5 7.018,10 2.893,5.5 7.366,11.568 9.94,13.485 2.573,1.916 4.679,5.216 4.679,7.333 0,2.117 1.732,3.849 3.849,3.849 2.117,0 5.417,2.106 7.333,4.679 1.917,2.574 7.985,7.047 13.485,9.94 5.5,2.893 10,6.051 10,7.018 0,0.966 5.4,2.567 12,3.557 l 12,1.799 V 354.83 400 h 24 24 v -45.17 -45.17 l 12,-1.799 c 6.6,-0.99 12,-2.591 12,-3.557 0,-0.967 4.5,-4.125 10,-7.018 5.5,-2.893 11.568,-7.366 13.485,-9.94 1.916,-2.573 5.216,-4.679 7.333,-4.679 2.117,0 3.849,-1.732 3.849,-3.849 0,-2.117 2.106,-5.417 4.679,-7.333 2.574,-1.917 7.047,-7.985 9.94,-13.485 2.893,-5.5 6.051,-10 7.018,-10 0.966,0 2.567,-5.4 3.557,-12 l 1.799,-12 H 354.83 400 v -24 -24 h -45.17 -45.17 l -1.799,-12 c -0.99,-6.6 -2.591,-12 -3.557,-12 -0.967,0 -4.125,-4.5 -7.018,-10 -2.893,-5.5 -7.366,-11.568 -9.94,-13.485 -2.573,-1.916 -4.679,-5.216 -4.679,-7.333 0,-2.117 -1.732,-3.849 -3.849,-3.849 -2.117,0 -5.417,-2.106 -7.333,-4.679 -1.917,-2.574 -7.985,-7.047 -13.485,-9.94 -5.5,-2.893 -10,-6.051 -10,-7.018 0,-0.966 -5.4,-2.567 -12,-3.557 L 224,90.34 V 45.17 0 h -24 -24 v 45.17 m 60.38,77.605 C 304.501,155.812 302.129,247.417 232.32,279.5 165.394,310.258 89.68,234.739 120.409,167.878 142.483,119.85 191.245,100.885 236.38,122.775 M 189.333,200 v 10.667 H 200 210.667 V 200 189.333 H 200 189.333 V 200"
       id="path0" />
  </g>
</svg>
