<?xml version="1.0" encoding="UTF-8" standalone="no"?>
<svg
   xmlns:dc="http://purl.org/dc/elements/1.1/"
   xmlns:cc="http://creativecommons.org/ns#"
   xmlns:rdf="http://www.w3.org/1999/02/22-rdf-syntax-ns#"
   xmlns:svg="http://www.w3.org/2000/svg"
   xmlns="http://www.w3.org/2000/svg"
   id="svg16"
   version="1.1"
   viewBox="0 0 270 269.99999"
   height="270"
   width="270">
  <metadata
     id="metadata22">
    <rdf:RDF>
      <cc:Work
         rdf:about="">
        <dc:format>image/svg+xml</dc:format>
        <dc:type
           rdf:resource="http://purl.org/dc/dcmitype/StillImage" />
        <dc:title></dc:title>
      </cc:Work>
    </rdf:RDF>
  </metadata>
  <defs
     id="defs20" />
  <g
     id="g14"
     transform="translate(16.997,88.981998)">
    <g
       id="g6"
       transform="translate(-33.045338,21.11162)">
      <path
         style="fill:#000000;fill-rule:evenodd"
         id="path2"
         transform="translate(-18.537,-105.918)"
         d="m 102.474,106.118 c -2.38528,0.19809 -4.737952,0.68326 -7.007,1.445 -0.1,0.054 -0.906,0.394 -1.8,0.757 -8.391,3.415 -14.411,11.183 -15.293,19.731 -0.3,2.88 0.118,7.9 0.765,9.27 0.056,0.119 0.268,0.726 0.47,1.35 0.679,2.1 2.29,5.3 2.878,5.725 0.130757,0.15292 0.247557,0.31724 0.349,0.491 1.781432,2.47379 4.007251,4.59483 6.564,6.255 0.352036,0.20828 0.692227,0.43597 1.019,0.682 2.061155,1.22743 4.288832,2.15063 6.614,2.741 0.941,0.244 1.809,0.486 1.927,0.537 1.521,0.655 10.088,0.648 11.386,-0.009 0.1,-0.048 0.931,-0.283 1.857,-0.522 2.39202,-0.60731 4.68276,-1.55999 6.8,-2.828 0.23669,-0.18774 0.49163,-0.35123 0.761,-0.488 1.15,-0.586 4.748,-3.517 4.748,-3.868 -0.40968,-0.49875 -0.85163,-0.97009 -1.323,-1.411 -0.728,-0.723 -1.809,-1.837 -2.4,-2.475 -1.267,-1.361 -1.108,-1.322 -2.142,-0.523 -3.38025,2.77797 -7.49738,4.50969 -11.847,4.983 -0.624,0.063 -1.341,0.143 -1.593,0.177 -0.3,0.04 -0.459,0.02 -0.459,-0.058 0,-0.078 -0.285,-0.119 -0.783,-0.119 -3.20584,-0.19246 -6.316378,-1.16386 -9.062,-2.83 -2.914037,-1.87974 -5.220498,-4.56413 -6.64,-7.728 -3.729993,-8.61794 0.246059,-18.62686 8.873,-22.336 0.349726,-0.1441 0.690947,-0.30803 1.022,-0.491 1.26394,-0.52787 2.58833,-0.89735 3.943,-1.1 2.08443,-0.21157 4.18585,-0.19212 6.266,0.058 1.24512,0.19431 2.46094,0.54404 3.619,1.041 0.2785,0.1484 0.56723,0.27672 0.864,0.384 1.56224,0.7193 3.0609,1.56932 4.48,2.541 0.3,0.235 0.883,0.718 1.3,1.073 0.923,0.789 1,0.793 1.606,0.082 0.267,-0.312 1.011,-1.163 1.654,-1.891 0.92823,-0.92649 1.77129,-1.93454 2.519,-3.012 0,-0.141 -0.608,-0.688 -2,-1.8 -0.536,-0.428 -1.081,-0.877 -1.21,-1 -1.72343,-1.19022 -3.58296,-2.17018 -5.539,-2.919 -0.40556,-0.13795 -0.80231,-0.30058 -1.188,-0.487 -0.238,-0.3 -4.3,-1.168 -6.466,-1.391 -1.83966,-0.1103 -3.68379,-0.12532 -5.525,-0.045 m -59.096571,7.712 H 52.774 c 4.565,0 7.606,1.667 8.377,4.592 0.807105,2.7691 -0.490262,5.71801 -3.077,6.994 -1.769,0.836 -2.639,0.962 -7.175,1.041 l -7.580468,0.066 -0.126103,7.166 c 0,0.092 2.466571,0.124 5.833571,0.125 7.623,0 9.752,0.432 12.35,2.5 3.429,2.725 2.663,7.951 -1.466,10.008 -2.448,1.22 -3.948,1.375 -13.245,1.375 h -3.327538 l 0.03165,7.292 c 0,0 12.399885,0.257 12.491885,0.108 0.176755,-0.0912 0.376067,-0.12935 0.574,-0.11 6.526,-0.022 12.919,-3.741 14.852,-8.641 2.828,-7.168 -1.19,-15.228 -8.35,-16.745 -0.505,-0.107 -0.79,-0.2 -0.632,-0.2 1.184443,-0.21151 2.309748,-0.67459 3.3,-1.358 0.106,-0.093 0.461,-0.377 0.788,-0.632 1.913206,-1.66423 3.176321,-3.95137 3.566,-6.457 0.881,-5.991 -2.165,-10.915 -8.049,-13.011 -0.318534,-0.0992 -0.626654,-0.22911 -0.92,-0.388 -1.719967,-0.54792 -3.499249,-0.88833 -5.3,-1.014 l -12.303879,-0.075" />
      <rect
         style="fill:#000000"
         y="0"
         x="0"
         id="rect4"
         transform="rotate(-90,33.1155,15.9705)"
         height="7.7280002"
         width="48.541" />
    </g>
    <g
       id="g12"
       transform="translate(94.704662,20.526565)">
      <path
         id="path8"
         transform="translate(-127.75,-0.032)"
         d="m 141.62305,0.02539063 c -2.77677,0 -4.66274,0.02559171 -6.14453,0.06249999 V 0.0625 H 127.75 v 50.955078 h 7.72852 V 30.021484 h 21.51367 v -7.572265 l -11.16016,0.224609 -10.35351,0.208984 V 7.8476562 c 3.52238,0.029936 10.07037,-0.3222656 14.76367,-0.3222656 h 9 V 0.02539063 Z M 264.21289,3.7734375 v 4.875 h 0.002 v 4.8730465 h -6 v 6.748047 h 6 v 11.322266 c 0,13.191 0.71432,15.608031 5.32032,17.957031 4.149,2.117 10.84262,1.66525 14.39062,-0.96875 2.2,-1.633 0.15017,-6.859687 -2.42383,-6.179687 -8,2.111 -9.01429,0.689734 -9.02929,-12.572266 l -0.0117,-9.558594 h 12 v -6.748047 h -12 V 3.7734375 Z m -81.39258,8.2285155 c -2.30487,0.05053 -4.6921,0.427929 -7.10742,1.171875 -13.936,4.3 -17.60627,24.317813 -6.07227,33.132813 13.31001,10.172 32.74215,2.890093 34.36915,-12.878907 1.28418,-12.439406 -8.73691,-21.698779 -21.18946,-21.425781 z m 30.41407,0.03125 v 19.488281 h -0.008 v 19.5 h 8.24805 l 0.0176,-9.933593 c 0.028,-15.518 2.13439,-20.027407 9.90039,-21.191407 9.047,-1.357 11.07812,2.073797 11.07812,18.716797 v 12.408203 h 9.17578 l -0.32031,-14.433593 c -0.349,-15.788 -0.73355,-17.386344 -5.06055,-21.027344 -6.382,-5.371 -19.55799,-4.223844 -23.375,2.035156 l -1.4082,2.308594 V 15.96875 12.033203 Z m -29.75782,7.181641 c 2.20281,-0.02509 4.46333,0.590844 6.54883,1.996094 v 0.0039 c 10.08,6.793 5.52136,22.300781 -6.55664,22.300781 -7.211,0 -11.28803,-3.645406 -11.95703,-10.691406 -0.7305,-7.68225 5.35641,-13.534094 11.96484,-13.609375 z" />
    </g>
  </g>
</svg>
