<?xml version="1.0" encoding="UTF-8" standalone="no"?>
<svg
   xmlns:dc="http://purl.org/dc/elements/1.1/"
   xmlns:cc="http://creativecommons.org/ns#"
   xmlns:rdf="http://www.w3.org/1999/02/22-rdf-syntax-ns#"
   xmlns:svg="http://www.w3.org/2000/svg"
   xmlns="http://www.w3.org/2000/svg"
   id="svg12"
   version="1.1"
   viewBox="0 0 301.121 301.121"
   height="301.121"
   width="301.121">
  <metadata
     id="metadata18">
    <rdf:RDF>
      <cc:Work
         rdf:about="">
        <dc:format>image/svg+xml</dc:format>
        <dc:type
           rdf:resource="http://purl.org/dc/dcmitype/StillImage" />
        <dc:title></dc:title>
      </cc:Work>
    </rdf:RDF>
  </metadata>
  <defs
     id="defs16" />
  <g
     id="g10"
     transform="translate(-393,54.101999)">
    <g
       id="g4"
       transform="translate(515.271,70.966502)">
      <path
         style="fill:#000000;fill-rule:evenodd"
         id="path2"
         transform="translate(-190.761,-166.01)"
         d="m 208.937,166.573 a 14.182,14.182 0 0 1 -1.086,3.936 c -0.7,1.856 -4.826,12.764 -9.178,24.241 -4.352,11.477 -7.912,21.009 -7.912,21.181 0,0.172 4.139,0.314 9.2,0.314 h 9.2 l 3.736,-10.121 3.732,-10.124 h 25.118 v -7.573 l -11.16,0.225 -11.161,0.225 2.24,-6 c 4,-10.7 4.228,-11.26 4.282,-10.31 0.039,0.7 2.38,0.937 9.05,0.937 h 9 v -7.5 h -17.62 c -9.691,0 -17.539,0.253 -17.439,0.562 m 140.03,8.06 v 4.874 h -6 v 6.748 h 6 v 11.321 c 0,13.191 0.716,15.608 5.322,17.958 4.149,2.117 10.84,1.666 14.389,-0.968 2.2,-1.633 0.151,-6.861 -2.423,-6.181 -7.995,2.111 -9.015,0.691 -9.03,-12.571 l -0.011,-9.56 h 12 v -6.748 h -12 v -9.747 h -8.248 v 4.874 m -88.5,4.526 c -13.936,4.3 -17.607,24.317 -6.073,33.132 13.31,10.172 32.742,2.89 34.369,-12.879 1.522,-14.743 -12.834,-25.019 -28.3,-20.253 M 297.981,197.5 V 217 h 8.248 l 0.018,-9.935 c 0.028,-15.518 2.134,-20.025 9.9,-21.19 9.047,-1.357 11.077,2.073 11.077,18.715 V 217 h 9.176 l -0.319,-14.433 c -0.349,-15.788 -0.734,-17.387 -5.061,-21.028 -6.382,-5.371 -19.558,-4.223 -23.375,2.036 l -1.409,2.309 v -3.936 -3.936 h -8.248 V 197.5 m -23.207,-10.307 c 10.08,6.793 5.52,22.3 -6.558,22.3 -7.211,0 -11.287,-3.644 -11.956,-10.69 -0.974,-10.243 10.172,-17.235 18.514,-11.614" />
    </g>
    <g
       id="g8"
       transform="translate(393,70.87511)">
      <path
         style="fill:#000000;fill-rule:evenodd"
         id="path6"
         transform="translate(0.006,-105.914)"
         d="m 86.205,106.12 a 30.561,30.561 0 0 0 -7.2,1.485 c -0.1,0.055 -0.931,0.4 -1.846,0.777 -8.618,3.508 -14.8,11.486 -15.707,20.265 -0.3,2.958 0.121,8.119 0.786,9.521 0.058,0.122 0.275,0.746 0.482,1.387 0.7,2.153 2.352,5.445 2.956,5.88 a 3.461,3.461 0 0 1 0.358,0.5 25.26,25.26 0 0 0 6.742,6.424 11.348,11.348 0 0 1 1.047,0.7 25.58,25.58 0 0 0 6.793,2.815 c 0.967,0.25 1.858,0.5 1.98,0.551 1.562,0.673 10.361,0.666 11.694,-0.009 0.1,-0.049 0.956,-0.291 1.908,-0.536 2.463,-0.636 6.141,-2.167 6.98,-2.9 a 4.633,4.633 0 0 1 0.782,-0.5 c 1.182,-0.6 4.877,-3.612 4.877,-3.973 a 15.163,15.163 0 0 0 -1.359,-1.449 c -0.748,-0.743 -1.858,-1.886 -2.469,-2.542 -1.3,-1.4 -1.138,-1.358 -2.2,-0.537 A 23.1,23.1 0 0 1 90.643,149.1 c -0.641,0.065 -1.377,0.147 -1.637,0.181 -0.307,0.041 -0.472,0.021 -0.472,-0.059 0,-0.08 -0.293,-0.122 -0.8,-0.123 a 20.284,20.284 0 0 1 -9.307,-2.907 18.416,18.416 0 0 1 -6.82,-7.937 17.434,17.434 0 0 1 9.113,-22.941 10.213,10.213 0 0 0 1.05,-0.5 17.057,17.057 0 0 1 4.05,-1.126 29.205,29.205 0 0 1 6.435,0.059 15.477,15.477 0 0 1 3.717,1.069 6.814,6.814 0 0 0 0.888,0.394 31.358,31.358 0 0 1 4.6,2.61 c 0.306,0.241 0.907,0.738 1.334,1.1 0.948,0.811 1.025,0.814 1.649,0.084 0.274,-0.32 1.038,-1.194 1.7,-1.942 a 22.471,22.471 0 0 0 2.588,-3.094 c 0,-0.145 -0.624,-0.706 -2.055,-1.848 -0.551,-0.44 -1.11,-0.9 -1.243,-1.024 a 26.994,26.994 0 0 0 -5.689,-3 10.78,10.78 0 0 1 -1.22,-0.5 c -0.244,-0.3 -4.413,-1.2 -6.641,-1.429 a 54.861,54.861 0 0 0 -5.675,-0.046 m -49.237,0.638 c -0.1,0.219 -0.1,0.289 0,0.289 0.071,0 0.044,0.062 -0.06,0.139 a 0.767,0.767 0 0 0 -0.215,0.5 c -0.014,0.2 -0.055,0.36 -0.092,0.36 -0.037,0 -0.988,2.378 -1.05,2.663 a 2.347,2.347 0 0 1 -0.077,0.222 c -0.036,0.092 -0.248,0.665 -0.471,1.275 a 6.768,6.768 0 0 1 -0.5,1.166 0.78,0.78 0 0 0 -0.169,0.361 l -0.076,0.3 h 0.9 c 4.689,0 7.812,1.712 8.6,4.717 a 6.1,6.1 0 0 1 -3.16,7.184 c -1.817,0.858 -2.71,0.988 -7.369,1.069 l -3.874,0.067 -0.1,0.333 a 7.246,7.246 0 0 1 -0.259,0.682 2.066,2.066 0 0 0 -0.156,0.438 c 0,0.122 -0.645,1.88 -0.905,2.466 a 4.91,4.91 0 0 0 -0.278,0.8 c -0.036,0.179 -0.1,0.325 -0.145,0.325 a 13.005,13.005 0 0 0 -0.891,2.313 c 0,0.094 1.229,0.128 4.688,0.129 7.829,0 10.016,0.444 12.684,2.564 3.522,2.8 2.736,8.166 -1.506,10.279 -2.515,1.253 -4.055,1.413 -13.6,1.413 h -7.671 l -0.254,0.8 c -0.14,0.441 -0.289,0.779 -0.331,0.753 -0.106,-0.065 -0.341,0.73 -0.257,0.867 0.037,0.06 0.021,0.081 -0.036,0.045 -0.057,-0.036 -0.22,0.269 -0.361,0.676 -0.141,0.407 -0.558,1.552 -0.926,2.544 l -0.669,1.8 h -2.87 a 14.963,14.963 0 0 0 -2.87,0.111 c 0,0.153 25.59,0.153 25.685,0 a 1.061,1.061 0 0 1 0.589,-0.113 c 6.7,-0.022 13.269,-3.843 15.254,-8.874 2.9,-7.363 -1.223,-15.64 -8.576,-17.2 -0.519,-0.11 -0.811,-0.2 -0.65,-0.211 a 8.642,8.642 0 0 0 3.391,-1.395 c 0.109,-0.1 0.473,-0.387 0.809,-0.649 a 11.038,11.038 0 0 0 3.663,-6.632 c 0.9,-6.153 -2.224,-11.211 -8.267,-13.363 a 5.277,5.277 0 0 1 -0.945,-0.4 23.273,23.273 0 0 0 -5.439,-1.042 l -1.059,-0.077 -0.131,0.289 m -19.217,1.7 a 14.482,14.482 0 0 1 -0.678,1.694 11.49,11.49 0 0 0 -0.6,1.5 c -0.817,2.281 -1.46,4.061 -1.662,4.6 -0.1,0.275 -0.38,1.045 -0.617,1.711 a 8.1,8.1 0 0 1 -0.524,1.276 7.72,7.72 0 0 0 -0.516,1.229 l -1.006,2.774 c -1.424,3.926 -1.647,4.525 -1.886,5.048 -0.239,0.523 -0.588,1.463 -2.071,5.548 a 34.634,34.634 0 0 1 -1.432,3.717 6.569,6.569 0 0 0 -0.429,1.054 c -0.193,0.549 -0.579,1.623 -0.858,2.385 -0.68,1.854 -1.616,4.436 -1.931,5.326 a 3.729,3.729 0 0 1 -0.337,0.777 7.914,7.914 0 0 0 -0.485,1.165 c -0.479,1.316 -1.362,3.727 -2.154,5.88 -0.314,0.854 -0.57,1.591 -0.569,1.637 0.001,0.046 4.077,0.071 9.058,0.055 l 9.056,-0.028 0.33,-0.888 c 0.31,-0.833 0.59,-1.606 1.765,-4.882 a 8.713,8.713 0 0 1 0.66,-1.53 28.029,28.029 0 0 0 1.734,-4.39 c 1.42,-3.92 1.618,-4.438 1.7,-4.438 0.047,0 0.116,-0.141 0.154,-0.314 0.038,-0.173 0.357,-1.084 0.709,-2.025 0.352,-0.941 0.73,-2.01 0.84,-2.376 a 49.661,49.661 0 0 1 1.731,-4.826 13.261,13.261 0 0 0 0.608,-1.553 13.42,13.42 0 0 1 0.663,-1.664 5.283,5.283 0 0 0 0.418,-0.943 c 0.155,-0.427 0.586,-1.611 0.959,-2.63 0.373,-1.019 0.677,-1.9 0.677,-1.96 a 0.165,0.165 0 0 1 0.094,-0.143 8.6,8.6 0 0 0 0.6,-1.424 l 0.917,-2.5 a 32.659,32.659 0 0 0 1.159,-3.378 10.351,10.351 0 0 1 0.855,-2.205 0.507,0.507 0 0 0 0.143,-0.289 c 0,-0.078 0.28,-0.886 0.622,-1.8 a 21.536,21.536 0 0 0 0.93,-2.734 c 0,-0.046 -4.059,-0.083 -9.022,-0.083 h -9.016 l -0.59,1.637" />
    </g>
  </g>
</svg>
