<svg xmlns="http://www.w3.org/2000/svg" width="30" height="30" viewBox="0 0 30 30"><path d="M15.015,5.994A14.832,14.832,0,0,1,7.433,3.956,15.17,15.17,0,0,1,2.038-1.439,14.8,14.8,0,0,1,0-9.006a14.8,14.8,0,0,1,2.038-7.567,15.17,15.17,0,0,1,5.395-5.395A14.8,14.8,0,0,1,15-24.006a14.8,14.8,0,0,1,7.567,2.038,15.17,15.17,0,0,1,5.395,5.395A14.8,14.8,0,0,1,30-9.006a14.8,14.8,0,0,1-2.038,7.567,15.17,15.17,0,0,1-5.395,5.395A14.777,14.777,0,0,1,15.015,5.994Zm3.926-23.257-1.618-.39-.629,2.607-1.289-.33.659-2.607-1.618-.39L13.786-15.7l-3.237-.809-.45,1.738.6.12.6.15a.854.854,0,0,1,.749.959L10.22-6.234a.591.591,0,0,1-.749.39q.03.03-1.169-.3L7.493-4.286l3.267.839L10.1-.749l1.588.39.659-2.667.539-1.948.869-3.6.6.15a15.806,15.806,0,0,0,2.008.24,11.234,11.234,0,0,0,1.229.06,6.087,6.087,0,0,0,1.8-.33A3.356,3.356,0,0,0,20.8-9.2a2.924,2.924,0,0,0,.719-1.648,2.583,2.583,0,0,0-.749-2.338A6.366,6.366,0,0,0,18.282-14.6Zm-.12,9.65a11.275,11.275,0,0,1-1.139.15l-.629.03a1.586,1.586,0,0,1,.779,1.8q-.39,1.678-3.716.959L12.977-.03,14.6.36l.659-2.7a7.689,7.689,0,0,0,3.566.06,3.258,3.258,0,0,0,2.128-2.248,3.753,3.753,0,0,0,.18-2.068,2.684,2.684,0,0,0-.869-1.439L20.2-8A6.684,6.684,0,0,1,18.821-7.612Zm-.48-3.267q-.27,1.109-1.708,1.109a7.8,7.8,0,0,1-2.218-.36l-.24-.06.779-3.267.39.09a7.781,7.781,0,0,1,2.1.719A1.506,1.506,0,0,1,18.342-10.879Z" transform="translate(0 24.006)" fill="#000000"/></svg>