<svg xmlns="http://www.w3.org/2000/svg" width="23.827" height="30" viewBox="0 0 23.827 30"><g transform="translate(95.588 -183.42)"><path d="M12.479,184.549c-14.738,2.129-18.01,22.445-4.636,28.782,3.854,1.826,16.293,1.21,15.345-.759-1.166-2.424-2.91-4.461-3.679-4.3-7.7,1.632-13.092-1.969-13.05-8.713.043-6.858,6.57-11.01,13.135-8.357.392.158.6.084.6-.215a10.444,10.444,0,0,1,1.247-2.477c1.2-1.949,1.224-2.038.6-2.5-1.581-1.157-6.489-1.91-9.557-1.467" transform="translate(-95 -1)" fill="#000000" fill-rule="evenodd"/></g></svg>