<svg xmlns="http://www.w3.org/2000/svg" width="29.997" height="18.721" viewBox="0 0 29.997 18.721"><g transform="translate(-104.697 -156.192)"><path d="M116.528,170.039c0,2.3-.618,6.053-5.946,6.056-2.979,0-5.88-1.622-5.885-5.523l0-1.552h3.552v.8c0,1.728.429,2.978,2.281,2.975,2.076,0,2.073-1.674,2.072-2.928l0-12.056h3.923Z" transform="translate(0 -1.182)" fill="#3e3e3e"/><path d="M166.952,162.619a3.851,3.851,0,0,0-3.9-3.124c-3.531,0-4.854,3-4.85,6.131,0,2.975,1.33,5.977,4.856,5.976,2.4,0,3.752-1.655,4.048-4l3.807,0a7.546,7.546,0,0,1-7.852,7.307c-5.529.006-8.785-4.12-8.786-9.273,0-5.3,3.244-9.433,8.772-9.438,3.927,0,7.23,2.3,7.711,6.423Z" transform="translate(-36.218)" fill="#000000"/></g></svg>