<?xml version="1.0" encoding="UTF-8" standalone="no"?>
<svg
   xmlns:dc="http://purl.org/dc/elements/1.1/"
   xmlns:cc="http://creativecommons.org/ns#"
   xmlns:rdf="http://www.w3.org/1999/02/22-rdf-syntax-ns#"
   xmlns:svg="http://www.w3.org/2000/svg"
   xmlns="http://www.w3.org/2000/svg"
   id="svg8"
   version="1.1"
   viewBox="0 0 199.99999 200"
   height="200"
   width="200">
  <metadata
     id="metadata14">
    <rdf:RDF>
      <cc:Work
         rdf:about="">
        <dc:format>image/svg+xml</dc:format>
        <dc:type
           rdf:resource="http://purl.org/dc/dcmitype/StillImage" />
        <dc:title></dc:title>
      </cc:Work>
    </rdf:RDF>
  </metadata>
  <defs
     id="defs12" />
  <g
     id="g6"
     transform="translate(-129,-559)">
    <path
       id="path2"
       transform="translate(2136,-23688)"
       d="m -1957,24447 h -15 a 15,15 0 0 1 -15,-15 v -170 a 15,15 0 0 1 15,-15 15,15 0 0 1 15,15 v 140.213 a 15.06,15.06 0 0 0 15,14.785 h 40 a 15,15 0 0 1 15,15 15,15 0 0 1 -15,15 z m 0,-30 z" />
    <path
       id="path4"
       transform="translate(2196,-23688)"
       d="m -1917,24432 v -140.213 a 15.057,15.057 0 0 0 -15,-14.787 h -40 a 15,15 0 0 1 -15,-15 15,15 0 0 1 15,-15 h 70 a 15,15 0 0 1 15,15 v 170 a 15,15 0 0 1 -15,15 15,15 0 0 1 -15,-15 z" />
  </g>
</svg>
