<?xml version="1.0" encoding="UTF-8" standalone="no"?>
<svg
   xmlns:dc="http://purl.org/dc/elements/1.1/"
   xmlns:cc="http://creativecommons.org/ns#"
   xmlns:rdf="http://www.w3.org/1999/02/22-rdf-syntax-ns#"
   xmlns:svg="http://www.w3.org/2000/svg"
   xmlns="http://www.w3.org/2000/svg"
   id="svg4"
   version="1.1"
   viewBox="0 0 34.65 34.65"
   height="34.650002"
   width="34.650002">
  <metadata
     id="metadata10">
    <rdf:RDF>
      <cc:Work
         rdf:about="">
        <dc:format>image/svg+xml</dc:format>
        <dc:type
           rdf:resource="http://purl.org/dc/dcmitype/StillImage" />
        <dc:title></dc:title>
      </cc:Work>
    </rdf:RDF>
  </metadata>
  <defs
     id="defs8" />
  <path
     style="fill:#000000"
     id="path2"
     d="m 19.950019,26.472044 a 1.125,1.125 0 0 1 0.12,0.51 0.953,0.953 0 0 1 -0.345,0.75 1.215,1.215 0 0 1 -0.825,0.3 1.061,1.061 0 0 1 -1.05,-0.72 l -2.13,-4.86 H 4.4100186 l -2.16,4.86 a 1.061,1.061 0 0 1 -1.05,0.72 1.236,1.236 0 0 1 -0.84,-0.315 0.98,0.98 0 0 1 -0.359999998066,-0.765 1.065,1.065 0 0 1 0.119999998066,-0.48 l 8.58,-19.0799997 a 1.293,1.293 0 0 1 0.54,-0.63 1.521,1.521 0 0 1 0.7800004,-0.21 1.5,1.5 0 0 1 0.81,0.225 1.4,1.4 0 0 1 0.54,0.615 z m -14.6400004,-6.06 h 9.5100004 l -4.77,-10.7699997 z m 23.8500004,-7.5 q 5.49,0 5.49,5.76 v 8.16 a 1.208,1.208 0 0 1 -0.315,0.87 1.126,1.126 0 0 1 -0.855,0.33 1.176,1.176 0 0 1 -0.87,-0.33 1.176,1.176 0 0 1 -0.33,-0.87 v -1.44 a 4.292,4.292 0 0 1 -1.74,2 5.128,5.128 0 0 1 -2.7,0.705 5.908,5.908 0 0 1 -2.595,-0.57 4.637,4.637 0 0 1 -1.875,-1.595 3.93,3.93 0 0 1 -0.69,-2.25 3.653,3.653 0 0 1 0.84,-2.565 5.1,5.1 0 0 1 2.76,-1.32 27.27,27.27 0 0 1 5.34,-0.4 h 0.66 v -0.99 a 3.945,3.945 0 0 0 -0.735,-2.64 3.018,3.018 0 0 0 -2.385,-0.84 8.812,8.812 0 0 0 -4.14,1.11 2.738,2.738 0 0 1 -1.14,0.51 0.77,0.77 0 0 1 -0.6,-0.27 1,1 0 0 1 -0.24,-0.69 1.133,1.133 0 0 1 0.255,-0.735 2.988,2.988 0 0 1 0.825,-0.645 9.652,9.652 0 0 1 2.385,-0.945 10.577,10.577 0 0 1 2.655,-0.35 z m -0.99,13.26 a 3.9,3.9 0 0 0 2.955,-1.215 4.364,4.364 0 0 0 1.155,-3.135 v -0.87 h -0.54 a 26.852,26.852 0 0 0 -4.02,0.225 3.907,3.907 0 0 0 -1.965,0.75 1.969,1.969 0 0 0 -0.585,1.545 2.484,2.484 0 0 0 0.86,1.935 3.1,3.1 0 0 0 2.14,0.765 z" />
</svg>
