<?xml version="1.0" encoding="UTF-8" standalone="no"?>
<svg
   xmlns:dc="http://purl.org/dc/elements/1.1/"
   xmlns:cc="http://creativecommons.org/ns#"
   xmlns:rdf="http://www.w3.org/1999/02/22-rdf-syntax-ns#"
   xmlns:svg="http://www.w3.org/2000/svg"
   xmlns="http://www.w3.org/2000/svg"
   style="display: block;"
   height="359"
   width="400"
   version="1.1"
   id="svg">
  <metadata
     id="metadata9">
    <rdf:RDF>
      <cc:Work
         rdf:about="">
        <dc:format>image/svg+xml</dc:format>
        <dc:type
           rdf:resource="http://purl.org/dc/dcmitype/StillImage" />
        <dc:title></dc:title>
      </cc:Work>
    </rdf:RDF>
  </metadata>
  <defs
     id="defs7" />
  <g
     transform="matrix(1.1151687,0,0,1.1151687,-23.172588,-20.67278)"
     id="svgg">
    <path
       style="fill:#000000;fill-rule:evenodd;stroke:none"
       d="m 124,21.86 c 0,0.473 -2.58,1.127 -5.734,1.452 -3.154,0.325 -5.891,1.063 -6.083,1.64 C 111.991,25.528 111.372,26 110.808,26 109.139,26 99,36.64 99,38.391 99,39.276 98.55,40 98,40 c -0.55,0 -1,0.675 -1,1.5 0,0.825 -0.428,1.5 -0.95,1.5 -0.523,0 -1.256,2.7 -1.63,6 -0.373,3.3 -1.07,6 -1.549,6 C 92.392,55 92,57.7 92,61 c 0,3.333 -0.444,6 -1,6 -0.6,0 -1,4 -1,10 0,6 0.4,10 1,10 0.577,0 1,3.139 1,7.417 0,4.079 0.428,7.566 0.95,7.75 0.523,0.183 1.259,4.445 1.635,9.471 l 0.685,9.137 -5.135,0.706 C 87.311,121.87 85,122.595 85,123.094 85,123.592 83.875,124 82.5,124 c -1.375,0 -2.5,0.445 -2.5,0.988 0,0.544 -1.8,1.276 -4,1.628 -2.2,0.352 -4,1.032 -4,1.512 0,0.48 -0.9,0.872 -2,0.872 -1.1,0 -2,0.414 -2,0.921 0,0.506 -1.35,1.217 -3,1.579 -1.65,0.362 -3,1.073 -3,1.579 0,0.507 -0.9,0.921 -2,0.921 -1.1,0 -2,0.401 -2,0.892 0,0.49 -1.125,1.174 -2.5,1.519 -1.375,0.345 -2.5,1.069 -2.5,1.608 0,0.54 -0.675,0.981 -1.5,0.981 -0.825,0 -1.5,0.42 -1.5,0.933 0,0.513 -0.974,1.241 -2.165,1.619 -1.191,0.378 -3.237,1.759 -4.546,3.068 -1.309,1.309 -2.935,2.38 -3.614,2.38 -0.678,0 -1.895,0.955 -2.704,2.123 -0.809,1.167 -2.033,2.71 -2.721,3.428 -0.687,0.718 -1.25,1.624 -1.25,2.013 0,0.389 -1.125,1.749 -2.5,3.024 -1.375,1.274 -2.5,3.013 -2.5,3.864 0,0.852 -0.45,1.548 -1,1.548 -0.55,0 -1,0.637 -1,1.417 0,0.779 -0.562,1.604 -1.25,1.833 -1.785,0.595 -1.785,25.905 0,26.5 0.688,0.229 1.25,1.054 1.25,1.833 0,0.779 0.45,1.417 1,1.417 0.55,0 1,0.683 1,1.518 0,0.834 1.575,3.047 3.5,4.916 1.925,1.87 3.5,3.818 3.5,4.33 0,1.39 3.568,5.236 4.859,5.236 0.618,0 2.414,1.35 3.991,3 1.576,1.65 3.497,3 4.268,3 0.77,0 1.928,0.843 2.571,1.874 0.644,1.031 2.413,2.186 3.932,2.567 1.518,0.381 3.514,1.562 4.435,2.624 0.922,1.062 3.086,2.213 4.81,2.558 1.724,0.345 3.134,1.021 3.134,1.502 0,0.481 0.675,0.875 1.5,0.875 0.825,0 1.5,0.392 1.5,0.872 0,0.48 1.8,1.16 4,1.512 2.2,0.352 4,1.084 4,1.628 0,0.543 1.35,0.988 3,0.988 1.65,0 3,0.445 3,0.988 0,0.544 1.8,1.276 4,1.628 2.2,0.352 4,1.032 4,1.512 0,0.48 0.706,0.872 1.569,0.872 1.739,0 1.062,16.15 -0.706,16.833 -0.475,0.184 -0.863,3.446 -0.863,7.25 0,3.945 -0.43,6.917 -1,6.917 -0.609,0 -1,4.5 -1,11.5 0,7 0.391,11.5 1,11.5 0.55,0 1,2.25 1,5 0,2.75 0.392,5 0.871,5 0.479,0 1.176,2.7 1.549,6 0.374,3.3 1.107,6 1.63,6 0.522,0 0.95,0.675 0.95,1.5 0,0.825 0.45,1.5 1,1.5 0.55,0 1,0.724 1,1.609 0,1.801 10.162,12.391 11.891,12.391 0.61,0 1.109,0.422 1.109,0.939 0,0.516 2.025,1.242 4.5,1.613 2.475,0.371 4.5,1.074 4.5,1.562 0,0.487 3.375,0.886 7.5,0.886 4.125,0 7.5,-0.386 7.5,-0.858 0,-0.471 2.813,-1.151 6.25,-1.509 3.438,-0.359 6.4,-1.098 6.583,-1.643 0.184,-0.544 1.421,-0.99 2.75,-0.99 1.329,0 2.417,-0.45 2.417,-1 0,-0.55 0.814,-1 1.809,-1 0.995,0 2.682,-0.661 3.75,-1.468 1.067,-0.808 2.728,-1.483 3.691,-1.5 0.963,-0.018 1.75,-0.482 1.75,-1.032 0,-0.55 0.675,-1 1.5,-1 0.825,0 1.5,-0.401 1.5,-0.892 0,-0.49 1.125,-1.174 2.5,-1.519 1.375,-0.345 2.5,-1.069 2.5,-1.608 0,-0.54 0.675,-0.981 1.5,-0.981 0.825,0 1.5,-0.42 1.5,-0.933 0,-0.513 0.974,-1.241 2.165,-1.619 1.191,-0.378 3.237,-1.759 4.546,-3.068 1.309,-1.309 2.85,-2.38 3.424,-2.38 0.574,0 2.961,-1.973 5.306,-4.385 2.344,-2.412 5.229,-4.693 6.41,-5.068 1.182,-0.375 2.149,-1.101 2.149,-1.614 0,-2.245 3.015,-0.517 8.636,4.95 3.327,3.235 6.997,6.183 8.155,6.551 1.159,0.367 2.385,1.545 2.725,2.617 0.34,1.072 1.503,1.949 2.583,1.949 1.08,0 2.223,0.675 2.539,1.5 0.317,0.825 1.38,1.5 2.362,1.5 0.982,0 2.045,0.675 2.362,1.5 0.316,0.825 1.489,1.5 2.607,1.5 1.117,0 2.031,0.45 2.031,1 0,0.55 0.675,1 1.5,1 0.825,0 1.5,0.353 1.5,0.784 0,1.236 5.588,4.216 7.904,4.216 1.153,0 2.096,0.45 2.096,1 0,0.55 0.862,1 1.917,1 1.054,0 2.066,0.446 2.25,0.99 0.183,0.545 3.146,1.284 6.583,1.643 3.438,0.358 6.25,1.038 6.25,1.509 0,0.472 3.375,0.858 7.5,0.858 4.125,0 7.5,-0.391 7.5,-0.87 0,-0.478 2.038,-1.1 4.529,-1.38 2.902,-0.327 5.189,-1.272 6.367,-2.63 1.011,-1.166 2.348,-2.12 2.971,-2.12 1.592,0 5.133,-3.72 5.133,-5.393 0,-0.766 0.675,-1.652 1.5,-1.969 0.825,-0.316 1.5,-1.489 1.5,-2.607 0,-1.117 0.45,-2.031 1,-2.031 0.55,0 1,-0.675 1,-1.5 0,-0.825 0.445,-1.5 0.988,-1.5 0.544,0 1.276,-1.8 1.628,-4 0.352,-2.2 1.032,-4 1.512,-4 0.48,0 0.872,-2.025 0.872,-4.5 0,-2.475 0.45,-4.5 1,-4.5 0.633,0 1,-7.333 1,-20 0,-12.667 -0.367,-20 -1,-20 -0.55,0 -1,-2.25 -1,-5 0,-2.75 -0.45,-5 -1,-5 -0.55,0 -1,-2.433 -1,-5.406 v -5.406 l 5,-0.688 c 2.75,-0.378 5,-1.095 5,-1.594 0,-0.498 0.9,-0.906 2,-0.906 1.1,0 2,-0.392 2,-0.872 0,-0.48 1.8,-1.16 4,-1.512 2.2,-0.352 4,-1.084 4,-1.628 0,-0.543 0.9,-0.988 2,-0.988 1.1,0 2,-0.45 2,-1 0,-0.55 1.139,-1 2.531,-1 1.393,0 2.791,-0.675 3.107,-1.5 0.317,-0.825 1.428,-1.5 2.469,-1.5 1.041,0 1.893,-0.414 1.893,-0.921 0,-0.506 1.371,-1.221 3.048,-1.589 1.676,-0.369 3.584,-1.529 4.24,-2.58 0.656,-1.05 1.922,-1.91 2.812,-1.91 0.891,0 2.465,-1.125 3.497,-2.5 1.033,-1.375 2.425,-2.5 3.095,-2.5 1.4,0 6.308,-4.651 6.308,-5.978 0,-0.488 0.9,-1.173 2,-1.522 1.106,-0.351 2,-1.513 2,-2.599 0,-1.08 0.675,-2.223 1.5,-2.539 0.825,-0.317 1.5,-1.243 1.5,-2.059 0,-0.815 0.912,-2.23 2.027,-3.143 1.362,-1.115 2.228,-3.383 2.639,-6.91 0.337,-2.887 1,-5.25 1.473,-5.25 0.474,0 0.861,-1.575 0.861,-3.5 0,-1.925 -0.387,-3.5 -0.861,-3.5 -0.473,0 -1.123,-2.216 -1.444,-4.924 -0.648,-5.477 -2.093,-8.554 -5.445,-11.597 -1.238,-1.123 -2.25,-2.786 -2.25,-3.693 0,-0.908 -0.9,-1.937 -2,-2.286 -1.1,-0.349 -2,-1.034 -2,-1.522 0,-1.327 -4.908,-5.978 -6.308,-5.978 -0.67,0 -2.062,-1.125 -3.095,-2.5 -1.032,-1.375 -2.606,-2.5 -3.497,-2.5 -0.89,0 -2.156,-0.86 -2.812,-1.91 -0.656,-1.051 -2.564,-2.211 -4.24,-2.58 -1.677,-0.368 -3.048,-1.083 -3.048,-1.589 0,-0.507 -0.9,-0.921 -2,-0.921 -1.1,0 -2,-0.414 -2,-0.921 0,-0.506 -1.35,-1.217 -3,-1.579 -1.65,-0.362 -3,-1.073 -3,-1.579 0,-0.507 -0.9,-0.921 -2,-0.921 -1.1,0 -2,-0.392 -2,-0.872 0,-0.48 -1.8,-1.16 -4,-1.512 -2.2,-0.352 -4,-1.084 -4,-1.628 0,-0.543 -1.125,-0.988 -2.5,-0.988 -1.375,0 -2.5,-0.408 -2.5,-0.906 0,-0.499 -2.281,-1.22 -5.069,-1.603 l -5.068,-0.698 0.699,-6.646 c 0.384,-3.656 1.09,-6.797 1.568,-6.98 0.479,-0.184 0.87,-3.221 0.87,-6.75 0,-3.611 0.437,-6.417 1,-6.417 0.624,0 1,-5.833 1,-15.5 0,-9.667 -0.376,-15.5 -1,-15.5 -0.55,0 -1,-2.25 -1,-5 0,-2.75 -0.408,-5 -0.906,-5 -0.499,0 -1.216,-2.25 -1.594,-5 -0.378,-2.75 -1.095,-5 -1.594,-5 -0.498,0 -0.906,-0.675 -0.906,-1.5 0,-0.825 -0.45,-1.5 -1,-1.5 -0.55,0 -1,-0.837 -1,-1.86 0,-1.023 -1.098,-2.684 -2.44,-3.692 -1.342,-1.008 -2.7,-2.871 -3.019,-4.14 C 295.223,29.039 294.236,28 293.348,28 c -0.887,0 -2.441,-0.954 -3.452,-2.12 -1.178,-1.358 -3.465,-2.303 -6.367,-2.63 C 281.038,22.97 279,22.348 279,21.87 279,21.391 275.625,21 271.5,21 c -4.125,0 -7.5,0.386 -7.5,0.858 0,0.471 -2.812,1.151 -6.25,1.509 -3.437,0.359 -6.4,1.098 -6.583,1.643 -0.184,0.544 -1.196,0.99 -2.25,0.99 -1.055,0 -1.917,0.414 -1.917,0.921 0,0.506 -1.35,1.217 -3,1.579 -1.65,0.362 -3,1.073 -3,1.579 0,0.507 -0.9,0.921 -2,0.921 -1.1,0 -2,0.45 -2,1 0,0.55 -0.675,1 -1.5,1 -0.825,0 -1.5,0.45 -1.5,1 0,0.55 -0.914,1 -2.031,1 -1.118,0 -2.291,0.675 -2.607,1.5 -0.317,0.825 -1.38,1.5 -2.362,1.5 -0.982,0 -2.045,0.675 -2.362,1.5 -0.316,0.825 -1.459,1.5 -2.539,1.5 -1.08,0 -2.243,0.877 -2.583,1.949 -0.34,1.072 -1.495,2.227 -2.567,2.567 -1.072,0.34 -1.949,1.038 -1.949,1.551 0,0.513 -0.516,0.933 -1.147,0.933 -0.631,0 -3.817,2.694 -7.079,5.987 l -5.932,5.988 -3.289,-3.488 C 195.744,54.569 193.826,53 193.291,53 c -0.535,0 -2.809,-1.8 -5.053,-4 -2.245,-2.2 -4.761,-4 -5.592,-4 -0.831,0 -1.797,-0.9 -2.146,-2 -0.351,-1.106 -1.513,-2 -2.599,-2 -1.08,0 -2.223,-0.675 -2.539,-1.5 C 175.045,38.675 173.982,38 173,38 172.018,38 170.955,37.325 170.638,36.5 170.322,35.675 169.149,35 168.031,35 166.914,35 166,34.55 166,34 c 0,-0.55 -0.675,-1 -1.5,-1 -0.825,0 -1.5,-0.45 -1.5,-1 0,-0.55 -0.9,-1 -2,-1 -1.1,0 -2,-0.414 -2,-0.921 0,-0.506 -1.35,-1.217 -3,-1.579 -1.65,-0.362 -3,-1.073 -3,-1.579 0,-0.507 -1.088,-0.921 -2.417,-0.921 -1.329,0 -2.575,-0.477 -2.77,-1.06 -0.194,-0.583 -3.831,-1.323 -8.083,-1.644 C 135.479,22.974 132,22.326 132,21.856 132,21.385 130.2,21 128,21 c -2.2,0 -4,0.387 -4,0.86 m 18.824,20.113 c 0.189,0.565 0.98,1.027 1.759,1.027 0.78,0 1.417,0.43 1.417,0.955 0,0.525 1.575,1.25 3.5,1.611 1.925,0.361 3.5,1.057 3.5,1.545 0,0.489 0.675,0.889 1.5,0.889 0.825,0 1.5,0.414 1.5,0.921 0,0.506 1.462,1.241 3.249,1.634 1.787,0.392 3.925,1.489 4.75,2.436 0.826,0.948 2.49,2.035 3.7,2.417 1.209,0.382 2.477,1.571 2.817,2.643 0.34,1.072 1.281,1.949 2.091,1.949 0.81,0 3.185,1.8 5.278,4 2.093,2.2 4.385,4 5.093,4 1.074,0 5.022,3.622 5.022,4.608 0,0.265 -1.519,1.758 -6.202,6.094 -2.042,1.891 -3.798,4.151 -3.798,4.888 0,0.37 -1.575,2.159 -3.5,3.975 -1.925,1.815 -3.5,3.845 -3.5,4.51 0,0.664 -1.35,2.499 -3,4.075 -1.65,1.577 -3,3.373 -3,3.991 0,0.619 -0.787,1.859 -1.75,2.756 -0.963,0.897 -2.246,2.525 -2.853,3.617 -0.964,1.737 -2.685,2.095 -13.75,2.86 -6.956,0.481 -12.647,1.268 -12.647,1.75 0,0.482 -2.213,0.876 -4.917,0.876 -2.704,0 -5.066,0.385 -5.25,0.856 -0.614,1.578 -9.833,2.067 -9.833,0.521 0,-0.757 -0.416,-1.377 -0.925,-1.377 -0.509,0 -1.242,-4.05 -1.629,-9 -0.387,-4.95 -1.096,-9 -1.575,-9 -1.146,0 -1.134,-31.719 0.012,-32.428 0.486,-0.3 1.193,-3.027 1.572,-6.059 0.379,-3.032 1.107,-5.513 1.617,-5.513 0.51,0 0.928,-0.659 0.928,-1.466 0,-1.57 4.731,-6.841 7.079,-7.886 2.226,-0.991 21.362,0.175 21.745,1.325 m 139.59,1.509 c 1.972,1.916 3.586,4.128 3.586,4.917 0,0.789 0.494,1.599 1.098,1.8 0.604,0.202 1.338,2.489 1.63,5.084 0.293,2.594 0.924,4.717 1.402,4.717 0.479,0 0.87,8.775 0.87,19.5 0,12.333 -0.368,19.5 -1,19.5 -0.55,0 -1,1.512 -1,3.36 0,1.849 -0.286,5.445 -0.635,7.993 l -0.635,4.633 -5.615,-0.645 c -3.088,-0.354 -5.765,-1.026 -5.948,-1.493 -0.184,-0.466 -2.546,-0.848 -5.25,-0.848 -2.705,0 -4.917,-0.396 -4.917,-0.88 0,-0.484 -5.185,-1.204 -11.523,-1.6 C 242.61,108.778 237,106.214 237,101.53 c 0,-0.724 -0.675,-1.575 -1.5,-1.892 -0.825,-0.316 -1.5,-1.459 -1.5,-2.539 0,-1.08 -0.877,-2.243 -1.949,-2.583 -1.072,-0.34 -2.227,-1.495 -2.567,-2.567 C 229.144,90.877 228.446,90 227.933,90 227.42,90 227,89.325 227,88.5 c 0,-0.825 -0.42,-1.5 -0.933,-1.5 -0.513,0 -1.211,-0.877 -1.551,-1.949 -0.34,-1.072 -1.494,-2.227 -2.565,-2.566 -1.07,-0.34 -2.2,-1.601 -2.511,-2.802 -0.31,-1.2 -1.809,-3.278 -3.331,-4.617 l -2.766,-2.434 4.842,-4.816 C 220.848,65.167 223.45,63 223.968,63 225.198,63 230,58.188 230,56.955 230,56.43 230.914,56 232.031,56 c 1.118,0 2.291,-0.675 2.607,-1.5 0.317,-0.825 1.428,-1.5 2.469,-1.5 1.041,0 1.893,-0.441 1.893,-0.981 0,-0.539 1.125,-1.263 2.5,-1.608 1.375,-0.345 2.5,-1.029 2.5,-1.519 0,-0.491 0.675,-0.892 1.5,-0.892 0.825,0 1.5,-0.4 1.5,-0.889 0,-0.488 1.575,-1.184 3.5,-1.545 1.925,-0.361 3.5,-1.086 3.5,-1.611 0,-0.525 0.675,-0.955 1.5,-0.955 0.825,0 1.5,-0.42 1.5,-0.934 0,-3.766 21.299,-2.58 25.414,1.416 M 202,86.487 c 0,0.818 2.25,3.748 5,6.513 2.75,2.765 5,5.47 5,6.013 0,0.543 0.42,0.987 0.933,0.987 0.513,0 1.211,0.877 1.551,1.949 0.34,1.072 1.495,2.227 2.567,2.567 5.425,1.722 0.501,2.484 -16.051,2.484 -16.192,0 -20.899,-0.674 -16.5,-2.362 0.825,-0.316 1.5,-1.489 1.5,-2.607 0,-1.117 0.43,-2.031 0.955,-2.031 1.256,0 6.045,-4.812 6.045,-6.074 0,-1.134 7.126,-8.8 8.25,-8.876 0.412,-0.027 0.75,0.619 0.75,1.437 M 224,125 c 0,0.55 1.538,1 3.418,1 4.729,0 6.582,0.883 6.582,3.138 0,1.059 0.675,2.184 1.5,2.5 0.825,0.317 1.5,1.398 1.5,2.402 0,1.004 0.9,2.111 2,2.46 1.106,0.351 2,1.513 2,2.599 0,1.08 0.675,2.223 1.5,2.539 0.825,0.317 1.5,1.428 1.5,2.469 0,1.041 0.401,1.893 0.892,1.893 0.49,0 1.174,1.125 1.519,2.5 0.345,1.375 1.069,2.5 1.608,2.5 0.54,0 0.981,0.675 0.981,1.5 0,0.825 0.4,1.5 0.889,1.5 0.488,0 1.184,1.575 1.545,3.5 0.361,1.925 1.086,3.5 1.611,3.5 0.525,0 0.955,0.675 0.955,1.5 0,0.825 0.441,1.5 0.981,1.5 0.539,0 1.263,1.125 1.608,2.5 0.345,1.375 1.029,2.5 1.519,2.5 0.491,0 0.892,0.9 0.892,2 0,1.1 0.401,2 0.892,2 0.49,0 1.201,1.233 1.579,2.74 0.378,1.507 1.214,3.075 1.858,3.485 0.894,0.568 0.894,0.748 0,0.76 -0.643,0.008 -1.467,1.365 -1.829,3.015 -0.362,1.65 -1.073,3 -1.579,3 -0.507,0 -0.921,0.9 -0.921,2 0,1.1 -0.401,2 -0.892,2 -0.49,0 -1.174,1.125 -1.519,2.5 -0.345,1.375 -1.069,2.5 -1.608,2.5 -0.54,0 -0.981,0.675 -0.981,1.5 0,0.825 -0.43,1.5 -0.955,1.5 -0.525,0 -1.25,1.575 -1.611,3.5 -0.361,1.925 -1.057,3.5 -1.545,3.5 -0.489,0 -0.889,0.675 -0.889,1.5 0,0.825 -0.441,1.5 -0.981,1.5 -0.539,0 -1.263,1.125 -1.608,2.5 -0.345,1.375 -1.029,2.5 -1.519,2.5 -0.491,0 -0.892,0.852 -0.892,1.893 0,1.041 -0.675,2.152 -1.5,2.469 -0.825,0.316 -1.5,1.489 -1.5,2.607 0,1.117 -0.45,2.031 -1,2.031 -0.55,0 -1,0.576 -1,1.279 0,0.704 -0.9,1.928 -2,2.721 -1.1,0.793 -2,1.985 -2,2.649 0,2.013 -2.994,4.351 -5.571,4.351 -1.336,0 -2.429,0.45 -2.429,1 0,0.642 -9.667,1 -27,1 -17.333,0 -27,-0.358 -27,-1 0,-0.55 -1.125,-1 -2.5,-1 -1.556,0 -2.5,-0.567 -2.5,-1.5 0,-0.825 -0.42,-1.5 -0.933,-1.5 -0.513,0 -1.252,-1.012 -1.643,-2.25 -0.39,-1.238 -1.546,-2.978 -2.567,-3.867 -1.021,-0.89 -1.857,-2.127 -1.857,-2.75 0,-0.623 -0.441,-1.133 -0.981,-1.133 -0.539,0 -1.263,-1.125 -1.608,-2.5 -0.345,-1.375 -1.029,-2.5 -1.519,-2.5 -0.491,0 -0.892,-0.482 -0.892,-1.071 0,-0.59 -0.675,-1.747 -1.5,-2.572 -0.825,-0.825 -1.5,-2.368 -1.5,-3.428 0,-1.061 -0.45,-1.929 -1,-1.929 -0.55,0 -1,-0.675 -1,-1.5 0,-0.825 -0.401,-1.5 -0.892,-1.5 -0.49,0 -1.174,-1.125 -1.519,-2.5 -0.345,-1.375 -1.069,-2.5 -1.608,-2.5 -0.54,0 -0.981,-0.675 -0.981,-1.5 0,-0.825 -0.4,-1.5 -0.889,-1.5 -0.488,0 -1.184,-1.575 -1.545,-3.5 -0.361,-1.925 -1.086,-3.5 -1.611,-3.5 -0.525,0 -0.955,-0.637 -0.955,-1.417 0,-0.779 -0.525,-1.591 -1.167,-1.805 -1.546,-0.516 -1.546,-10.04 0,-10.556 0.642,-0.214 1.167,-1.026 1.167,-1.805 0,-0.78 0.43,-1.417 0.955,-1.417 0.525,0 1.247,-1.56 1.605,-3.466 0.386,-2.057 1.377,-3.697 2.44,-4.034 1.063,-0.337 2.054,-1.977 2.44,-4.034 0.358,-1.906 1.08,-3.466 1.605,-3.466 0.525,0 0.955,-0.675 0.955,-1.5 0,-0.825 0.45,-1.5 1,-1.5 0.55,0 1,-0.868 1,-1.929 0,-1.06 0.675,-2.603 1.5,-3.428 0.825,-0.825 1.5,-1.982 1.5,-2.572 0,-0.589 0.401,-1.071 0.892,-1.071 0.49,0 1.174,-1.125 1.519,-2.5 0.345,-1.375 1.069,-2.5 1.608,-2.5 0.54,0 0.981,-0.51 0.981,-1.133 0,-0.623 0.836,-1.86 1.857,-2.75 1.021,-0.889 2.177,-2.629 2.567,-3.867 0.391,-1.238 1.13,-2.25 1.643,-2.25 0.513,0 0.933,-0.675 0.933,-1.5 0,-1.133 1.222,-1.5 5,-1.5 2.75,0 5,-0.45 5,-1 0,-0.638 8.333,-1 23,-1 14.667,0 23,0.362 23,1 m -78,3 c 0,0.55 -0.401,1 -0.892,1 -0.49,0 -1.174,1.125 -1.519,2.5 -0.345,1.375 -1.069,2.5 -1.608,2.5 -0.54,0 -0.981,0.675 -0.981,1.5 0,0.825 -0.45,1.5 -1,1.5 -0.55,0 -1,0.914 -1,2.031 0,1.118 -0.675,2.291 -1.5,2.607 -0.825,0.317 -1.5,1.428 -1.5,2.469 0,1.041 -0.344,1.893 -0.764,1.893 -0.42,0 -1.544,1.8 -2.497,4 -0.953,2.2 -2.184,4 -2.736,4 -0.552,0 -1.003,0.9 -1.003,2 0,3.315 -1.731,2.249 -2.434,-1.5 -0.361,-1.925 -1.086,-3.5 -1.611,-3.5 -0.525,0 -0.955,-1.125 -0.955,-2.5 0,-1.375 -0.408,-2.5 -0.906,-2.5 -0.499,0 -1.216,-2.25 -1.594,-5 -0.378,-2.75 -1.095,-5 -1.594,-5 -0.498,0 -0.906,-0.841 -0.906,-1.869 0,-1.908 3.898,-3.095 10.25,-3.12 1.512,-0.006 2.75,-0.461 2.75,-1.011 0,-0.55 2.475,-1 5.5,-1 3.025,0 5.5,-0.45 5.5,-1 0,-0.55 0.675,-1 1.5,-1 0.825,0 1.5,0.45 1.5,1 m 116.583,1 c 2.98,0 5.417,0.385 5.417,0.855 0,0.47 3.203,1.123 7.118,1.452 6.93,0.581 9.668,1.507 7.132,2.413 -0.687,0.246 -1.25,1.534 -1.25,2.863 0,1.329 -0.392,2.417 -0.872,2.417 -0.48,0 -1.16,1.8 -1.512,4 -0.352,2.2 -1.084,4 -1.628,4 -0.543,0 -0.988,1.35 -0.988,3 0,1.65 -0.45,3 -1,3 -0.55,0 -1,0.675 -1,1.5 0,0.825 -0.482,1.5 -1.071,1.5 -1.181,0 -3.929,-2.467 -3.929,-3.527 0,-1.499 -3.509,-8.073 -5.056,-9.473 -0.912,-0.825 -2.012,-2.625 -2.444,-4 -0.432,-1.375 -1.621,-3.227 -2.641,-4.116 -1.02,-0.888 -2.086,-3.138 -2.367,-5 -0.281,-1.861 -0.245,-2.821 0.082,-2.134 0.366,0.773 2.659,1.25 6.009,1.25 M 102,139.5 c 0,1.375 0.392,2.5 0.872,2.5 0.48,0 1.173,1.912 1.54,4.25 0.756,4.804 2.699,9.75 3.832,9.75 0.416,0 0.756,1.125 0.756,2.5 0,1.375 0.445,2.5 0.988,2.5 0.544,0 1.276,1.8 1.628,4 0.352,2.2 1.032,4 1.512,4 0.48,0 0.872,0.863 0.872,1.917 0,1.054 0.563,2.104 1.25,2.333 0.81,0.27 1.25,2.472 1.25,6.25 0,3.778 -0.44,5.98 -1.25,6.25 -0.687,0.229 -1.25,1.279 -1.25,2.333 0,1.054 -0.392,1.917 -0.872,1.917 -0.48,0 -1.16,1.8 -1.512,4 -0.352,2.2 -1.084,4 -1.628,4 -0.543,0 -0.988,1.125 -0.988,2.5 0,1.375 -0.34,2.5 -0.756,2.5 -1.133,0 -3.076,4.946 -3.832,9.75 -0.367,2.338 -1.06,4.25 -1.54,4.25 -0.48,0 -0.872,1.125 -0.872,2.5 0,1.375 -0.562,2.55 -1.25,2.611 -2.891,0.256 -6.273,-0.364 -6.583,-1.206 C 93.983,220.407 92.746,220 91.417,220 90.088,220 89,219.6 89,219.111 89,218.623 87.425,217.927 85.5,217.566 83.575,217.205 82,216.48 82,215.955 82,215.43 80.875,215 79.5,215 78.125,215 77,214.6 77,214.111 77,213.623 75.425,212.927 73.5,212.566 71.575,212.205 70,211.48 70,210.955 70,210.43 69.49,210 68.867,210 c -0.623,0 -1.86,-0.836 -2.75,-1.857 -0.889,-1.021 -2.63,-2.177 -3.867,-2.567 C 61.013,205.185 60,204.446 60,203.933 60,203.42 59.398,203 58.661,203 56.836,203 43,189.399 43,187.604 c 0,-0.79 -0.514,-1.609 -1.143,-1.818 -1.53,-0.51 -1.53,-12.062 0,-12.572 C 42.486,173.005 43,172.186 43,171.396 43,169.601 56.836,156 58.661,156 59.398,156 60,155.559 60,155.019 c 0,-0.539 1.125,-1.263 2.5,-1.608 1.375,-0.345 2.5,-1.029 2.5,-1.519 0,-0.491 0.675,-0.892 1.5,-0.892 0.825,0 1.5,-0.45 1.5,-1 0,-0.55 0.9,-1 2,-1 1.1,0 2,-0.414 2,-0.921 0,-0.506 1.35,-1.217 3,-1.579 1.65,-0.362 3,-1.073 3,-1.579 0,-0.507 1.35,-0.921 3,-0.921 1.65,0 3,-0.445 3,-0.988 0,-0.544 1.8,-1.276 4,-1.628 2.2,-0.352 4,-1.032 4,-1.512 0,-0.48 1.125,-0.872 2.5,-0.872 1.375,0 2.5,-0.45 2.5,-1 0,-0.55 1.125,-1 2.5,-1 2,0 2.5,0.5 2.5,2.5 M 303,138 c 0,0.55 1.125,1 2.5,1 1.375,0 2.5,0.408 2.5,0.906 0,0.499 2.25,1.216 5,1.594 2.75,0.378 5,1.095 5,1.594 0,0.498 0.9,0.906 2,0.906 1.1,0 2,0.414 2,0.921 0,0.506 1.35,1.217 3,1.579 1.65,0.362 3,1.073 3,1.579 0,0.507 0.9,0.921 2,0.921 1.1,0 2,0.45 2,1 0,0.55 0.675,1 1.5,1 0.825,0 1.5,0.401 1.5,0.892 0,0.49 1.125,1.174 2.5,1.519 1.375,0.345 2.5,1.069 2.5,1.608 0,0.54 0.567,0.981 1.26,0.981 0.693,0 2.474,1.125 3.957,2.5 1.482,1.375 3.165,2.5 3.739,2.5 0.574,0 1.044,0.42 1.044,0.933 0,0.513 0.877,1.211 1.949,1.551 1.072,0.34 2.261,1.608 2.643,2.817 0.382,1.21 1.642,3.026 2.801,4.038 3.461,3.02 2.988,15.742 -0.704,18.914 -1.479,1.271 -2.689,3.054 -2.689,3.961 0,0.908 -0.9,1.937 -2,2.286 -1.1,0.349 -2,1.054 -2,1.567 0,0.513 -0.47,0.933 -1.044,0.933 -0.574,0 -2.257,1.125 -3.739,2.5 -1.483,1.375 -3.264,2.5 -3.957,2.5 -0.693,0 -1.26,0.441 -1.26,0.981 0,0.539 -1.125,1.263 -2.5,1.608 -1.375,0.345 -2.5,1.029 -2.5,1.519 0,0.491 -0.675,0.892 -1.5,0.892 -0.825,0 -1.5,0.45 -1.5,1 0,0.55 -0.9,1 -2,1 -1.1,0 -2,0.414 -2,0.921 0,0.506 -1.35,1.217 -3,1.579 -1.65,0.362 -3,1.073 -3,1.579 0,0.507 -0.9,0.921 -2,0.921 -1.1,0 -2,0.445 -2,0.988 0,0.544 -1.8,1.276 -4,1.628 -2.2,0.352 -4,1.032 -4,1.512 0,0.48 -1.125,0.872 -2.5,0.872 -1.375,0 -2.5,0.45 -2.5,1 0,0.55 -1.125,1 -2.5,1 -2,0 -2.5,-0.5 -2.5,-2.5 0,-1.375 -0.45,-2.5 -1,-2.5 -0.55,0 -1,-0.9 -1,-2 0,-1.1 -0.391,-2 -0.869,-2 -0.478,0 -1.13,-1.609 -1.449,-3.575 -0.685,-4.218 -2.854,-9.425 -3.926,-9.425 -0.416,0 -0.756,-1.125 -0.756,-2.5 0,-1.375 -0.4,-2.5 -0.889,-2.5 -0.488,0 -1.184,-1.575 -1.545,-3.5 -0.361,-1.925 -1.086,-3.5 -1.611,-3.5 -0.525,0 -0.955,-0.637 -0.955,-1.417 0,-0.779 -0.489,-1.579 -1.087,-1.779 -1.486,-0.495 -1.554,-10.09 -0.074,-10.584 0.638,-0.212 1.161,-1.024 1.161,-1.803 0,-0.78 0.445,-1.417 0.988,-1.417 0.544,0 1.276,-1.8 1.628,-4 0.352,-2.2 1.032,-4 1.512,-4 0.48,0 0.872,-0.9 0.872,-2 0,-1.1 0.45,-2 1,-2 0.55,0 1,-1.125 1,-2.5 0,-1.375 0.392,-2.5 0.872,-2.5 0.48,0 1.16,-1.8 1.512,-4 0.352,-2.2 1.084,-4 1.628,-4 0.543,0 0.988,-1.125 0.988,-2.5 0,-1.375 0.45,-2.5 1,-2.5 0.55,0 1,-0.9 1,-2 0,-1.111 0.667,-2 1.5,-2 0.825,0 1.5,0.45 1.5,1 m -110.25,8.684 c -2.613,0.234 -4.75,0.851 -4.75,1.371 0,0.52 -0.675,0.945 -1.5,0.945 -0.825,0 -1.5,0.45 -1.5,1 0,0.55 -0.663,1 -1.474,1 -1.856,0 -10.526,8.582 -10.526,10.419 0,0.752 -0.675,1.626 -1.5,1.943 -0.825,0.316 -1.5,1.714 -1.5,3.107 0,1.392 -0.45,2.531 -1,2.531 -0.603,0 -1,4.167 -1,10.5 0,5.775 0.414,10.5 0.921,10.5 0.506,0 1.217,1.35 1.579,3 0.362,1.65 1.073,3 1.579,3 0.507,0 0.921,0.683 0.921,1.518 0,1.893 6.67,8.482 8.586,8.482 0.778,0 1.414,0.45 1.414,1 0,0.55 0.9,1 2,1 1.1,0 2,0.45 2,1 0,0.55 0.675,1 1.5,1 0.825,0 1.5,0.45 1.5,1 0,0.6 4,1 10,1 6,0 10,-0.4 10,-1 0,-0.55 1.125,-1 2.5,-1 1.375,0 2.5,-0.45 2.5,-1 0,-0.55 0.655,-1 1.456,-1 2.416,0 12.548,-10.77 13.2,-14.031 0.327,-1.633 0.988,-2.969 1.469,-2.969 0.481,0 0.875,-1.35 0.875,-3 0,-1.65 0.45,-3 1,-3 0.55,0 1,-2.475 1,-5.5 0,-3.025 -0.45,-5.5 -1,-5.5 -0.55,0 -1,-1.35 -1,-3 0,-1.65 -0.394,-3 -0.875,-3 -0.481,0 -1.157,-1.41 -1.502,-3.134 -0.345,-1.724 -1.462,-3.862 -2.482,-4.75 -1.02,-0.889 -2.175,-2.628 -2.565,-3.866 -0.42,-1.328 -1.515,-2.25 -2.675,-2.25 -1.08,0 -2.223,-0.675 -2.539,-1.5 -0.317,-0.825 -1.428,-1.5 -2.469,-1.5 -1.041,0 -1.893,-0.45 -1.893,-1 0,-0.55 -0.637,-1 -1.417,-1 -0.779,0 -1.566,-0.415 -1.75,-0.923 -0.4,-1.108 -12.446,-1.988 -19.083,-1.393 M 129,203 c 0,1.1 0.343,2 0.763,2 0.764,0 2.57,2.963 3.81,6.25 0.363,0.963 1.058,1.75 1.544,1.75 0.485,0 0.883,0.9 0.883,2 0,1.1 0.401,2 0.892,2 0.49,0 1.174,1.125 1.519,2.5 0.345,1.375 1.069,2.5 1.608,2.5 0.54,0 0.981,0.675 0.981,1.5 0,0.825 0.401,1.5 0.892,1.5 0.49,0 1.174,1.125 1.519,2.5 0.345,1.375 1.069,2.5 1.608,2.5 0.54,0 0.981,0.45 0.981,1 0,0.55 -1.575,1 -3.5,1 -1.925,0 -3.5,-0.45 -3.5,-1 0,-0.556 -2.667,-1 -6,-1 -3.333,0 -6,-0.444 -6,-1 0,-0.55 -1.8,-1 -4,-1 -3.6,0 -4,-0.25 -4,-2.5 0,-1.375 0.408,-2.5 0.906,-2.5 0.499,0 1.216,-2.25 1.594,-5 0.378,-2.75 1.095,-5 1.594,-5 0.498,0 0.906,-0.675 0.906,-1.5 0,-0.825 0.399,-1.5 0.886,-1.5 0.488,0 1.191,-2.025 1.562,-4.5 0.671,-4.475 2.552,-6.318 2.552,-2.5 m 146.066,3 c 0.514,0 0.934,0.9 0.934,2 0,1.1 0.392,2 0.872,2 0.48,0 1.16,1.8 1.512,4 0.352,2.2 1.084,4 1.628,4 0.543,0 0.988,1.125 0.988,2.5 0,1.375 0.45,2.5 1,2.5 0.55,0 1,0.844 1,1.875 0,1.96 -3.401,3.125 -9.125,3.125 -1.581,0 -2.875,0.45 -2.875,1 0,0.55 -2.25,1 -5,1 -2.75,0 -5,0.45 -5,1 0,0.55 -1.125,1 -2.5,1 -2.844,0 -3.626,-3.631 -1,-4.638 0.825,-0.317 1.5,-1.428 1.5,-2.469 0,-1.041 0.401,-1.893 0.892,-1.893 0.49,0 1.174,-1.125 1.519,-2.5 0.345,-1.375 1.069,-2.5 1.608,-2.5 0.54,0 0.981,-0.675 0.981,-1.5 0,-0.825 0.344,-1.5 0.764,-1.5 0.676,0 4.236,-7.18 4.236,-8.543 0,-0.29 1.012,-1.562 2.25,-2.825 l 2.25,-2.297 0.316,2.332 c 0.174,1.283 0.737,2.333 1.25,2.333 m 13.304,40.25 c 0.331,1.238 0.609,3.713 0.616,5.5 0.008,1.787 0.464,3.25 1.014,3.25 0.571,0 1,3 1,7 0,4 0.429,7 1,7 0.606,0 1,4.333 1,11 0,6.667 -0.394,11 -1,11 -0.55,0 -1,2.25 -1,5 0,2.75 -0.392,5 -0.872,5 -0.48,0 -1.16,1.8 -1.512,4 -0.352,2.2 -1.084,4 -1.628,4 -0.543,0 -0.988,0.683 -0.988,1.518 0,0.834 -1.67,3.139 -3.711,5.121 l -3.711,3.604 -10.487,-0.466 c -6.665,-0.296 -10.628,-0.888 -10.873,-1.622 -0.211,-0.635 -1.022,-1.155 -1.801,-1.155 -0.78,0 -1.417,-0.45 -1.417,-1 0,-0.55 -1.093,-1 -2.429,-1 -1.335,0 -3.103,-0.675 -3.928,-1.5 -0.825,-0.825 -1.982,-1.5 -2.572,-1.5 -0.589,0 -1.071,-0.401 -1.071,-0.892 0,-0.49 -1.125,-1.174 -2.5,-1.519 -1.375,-0.345 -2.5,-1.069 -2.5,-1.608 0,-0.54 -0.852,-0.981 -1.893,-0.981 -1.041,0 -2.152,-0.675 -2.469,-1.5 -0.316,-0.825 -1.489,-1.5 -2.607,-1.5 -1.117,0 -2.031,-0.381 -2.031,-0.847 0,-1.282 -3.59,-5.153 -4.779,-5.153 -0.574,0 -3.467,-2.366 -6.43,-5.258 l -5.386,-5.259 5.25,-4.991 c 2.888,-2.746 5.271,-5.551 5.298,-6.234 0.026,-0.684 1.397,-2.445 3.047,-3.916 1.65,-1.47 3,-3.468 3,-4.44 0,-0.972 0.877,-2.046 1.949,-2.386 1.072,-0.34 2.261,-1.608 2.643,-2.817 0.382,-1.21 1.53,-2.927 2.551,-3.816 1.021,-0.89 1.872,-2.015 1.89,-2.5 0.15,-3.96 3.505,-5.134 16.778,-5.873 7.254,-0.403 13.189,-1.133 13.189,-1.622 0,-0.488 2.025,-0.888 4.5,-0.888 2.475,0 4.5,-0.424 4.5,-0.943 0,-0.518 1.913,-1.114 4.25,-1.325 2.337,-0.21 4.535,-0.461 4.883,-0.557 0.349,-0.096 0.905,0.837 1.237,2.075 M 121,246 c 0,0.55 2.213,1 4.917,1 2.704,0 5.066,0.413 5.25,0.919 0.183,0.505 6.586,1.293 14.228,1.75 12.34,0.738 14.019,1.053 15,2.817 0.608,1.092 1.892,2.72 2.855,3.617 0.963,0.897 1.75,2.137 1.75,2.756 0,0.618 1.35,2.414 3,3.991 1.65,1.576 3,3.411 3,4.075 0,0.665 1.575,2.695 3.5,4.51 1.925,1.816 3.5,3.605 3.5,3.975 0,0.737 1.756,2.997 3.798,4.888 4.856,4.496 6.202,5.84 6.202,6.192 0,0.851 -10.325,10.51 -11.235,10.51 -0.529,0 -2.165,1.287 -3.634,2.86 -1.469,1.572 -3.675,3.178 -4.901,3.567 -1.227,0.389 -2.23,1.127 -2.23,1.64 0,0.513 -0.675,0.933 -1.5,0.933 -0.825,0 -1.5,0.441 -1.5,0.981 0,0.539 -1.125,1.263 -2.5,1.608 -1.375,0.345 -2.5,1.029 -2.5,1.519 0,0.491 -0.9,0.892 -2,0.892 -1.1,0 -2,0.414 -2,0.921 0,0.506 -1.35,1.217 -3,1.579 -1.65,0.362 -3,1.073 -3,1.579 0,0.507 -1.088,0.921 -2.417,0.921 -1.329,0 -2.604,0.563 -2.833,1.25 -0.299,0.899 -3.495,1.25 -11.368,1.25 H 120.43 l -3.215,-3.284 c -1.768,-1.807 -3.215,-3.944 -3.215,-4.75 0,-0.807 -0.418,-1.466 -0.928,-1.466 -0.51,0 -1.238,-2.481 -1.617,-5.513 -0.379,-3.032 -1.086,-5.759 -1.572,-6.059 -1.141,-0.705 -1.161,-32.428 -0.021,-32.428 0.475,0 1.177,-3.873 1.561,-8.607 0.384,-4.734 1.234,-9.217 1.888,-9.962 1.375,-1.567 7.689,-1.92 7.689,-0.431 m 98,6.933 c 0,0.513 -0.9,1.218 -2,1.567 -1.1,0.349 -2,1.396 -2,2.327 0,0.931 -1.565,3.038 -3.478,4.683 -1.914,1.644 -3.489,3.514 -3.5,4.154 -0.012,0.64 -1.61,2.8 -3.552,4.799 l -3.53,3.635 -3.97,-4.01 c -2.183,-2.205 -3.97,-4.457 -3.97,-5.004 0,-1.259 -4.779,-6.084 -6.026,-6.084 -0.515,0 -1.218,-1.125 -1.563,-2.5 -0.345,-1.375 -1.029,-2.5 -1.519,-2.5 -0.491,0 -0.892,-0.45 -0.892,-1 0,-0.63 6.667,-1 18,-1 10.466,0 18,0.39 18,0.933"
       id="path0" />
  </g>
</svg>
