<?xml version="1.0" encoding="UTF-8" standalone="no"?>
<svg
   xmlns:dc="http://purl.org/dc/elements/1.1/"
   xmlns:cc="http://creativecommons.org/ns#"
   xmlns:rdf="http://www.w3.org/1999/02/22-rdf-syntax-ns#"
   xmlns:svg="http://www.w3.org/2000/svg"
   xmlns="http://www.w3.org/2000/svg"
   id="svg4"
   version="1.1"
   viewBox="0 0 33.838 33.838001"
   height="33.838001"
   width="33.838001">
  <metadata
     id="metadata10">
    <rdf:RDF>
      <cc:Work
         rdf:about="">
        <dc:format>image/svg+xml</dc:format>
        <dc:type
           rdf:resource="http://purl.org/dc/dcmitype/StillImage" />
        <dc:title></dc:title>
      </cc:Work>
    </rdf:RDF>
  </metadata>
  <defs
     id="defs8" />
  <path
     style="fill:#000000"
     id="path2"
     d="M 13.843,21.853311 H 4.907 l -2.006,5.581 H 0 L 8.145,6.1063112 h 2.461 l 8.159,21.3279998 h -2.886 z m -8.086,-2.3 h 7.251 L 9.375,9.5783112 Z m 25.239,7.881 a 5.693,5.693 0 0 1 -0.381,-1.67 6.046,6.046 0 0 1 -4.511,1.963 5.6,5.6 0 0 1 -3.845,-1.326 4.289,4.289 0 0 1 -1.5,-3.362 4.481,4.481 0 0 1 1.88,-3.845 8.875,8.875 0 0 1 5.3,-1.37 h 2.637 v -1.245 a 3.044,3.044 0 0 0 -0.85,-2.263 3.415,3.415 0 0 0 -2.5,-0.842 3.952,3.952 0 0 0 -2.432,0.732 2.158,2.158 0 0 0 -0.981,1.772 h -2.734 a 3.74,3.74 0 0 1 0.842,-2.292 5.749,5.749 0 0 1 2.285,-1.75 7.688,7.688 0 0 1 3.171,-0.645 6.266,6.266 0 0 1 4.292,1.37 4.941,4.941 0 0 1 1.612,3.773 v 7.295 a 8.919,8.919 0 0 0 0.557,3.472 v 0.233 z m -4.5,-2.065 a 4.763,4.763 0 0 0 2.417,-0.659 3.987,3.987 0 0 0 1.655,-1.714 v -3.252 h -2.121 q -4.98,0 -4.98,2.915 a 2.467,2.467 0 0 0 0.85,1.992 3.266,3.266 0 0 0 2.182,0.718 z" />
</svg>
