<svg xmlns="http://www.w3.org/2000/svg" width="253.318" height="186.112" viewBox="0 0 253.318 186.112"><g transform="translate(-87 -405)"><g transform="translate(87 405)"><path d="M26.416,160.568a25.515,25.515,0,1,1,25.515,25.544,25.515,25.515,0,0,1-25.515-25.544Zm81.649,3.907H82.036a30.551,30.551,0,0,0,.214-3.606,30.018,30.018,0,1,0-60.036,0v.19L0,158.429V82.13l6.66-6.448V47.98H0V39.345H5.306l1.354-8.63,4.84-7.752,6.775-4.748,6.968-1.938,22.842.388L91.833,0h16.232V164.475h0ZM19.812,78.527h50.43V50.878H19.812Z" transform="translate(0)"/></g><g transform="translate(195.03 540.06)"><path d="M81.049,22.515a25.515,25.515,0,1,1,25.515,25.515A25.515,25.515,0,0,1,81.049,22.515Zm64.239,3.9h-9.005A29.994,29.994,0,0,0,118.048-1.2h27.24ZM0,26.418V-1.2H94.48A30,30,0,0,0,76.246,26.418Z" transform="translate(0 3)"/></g></g></svg>