<?xml version="1.0" encoding="UTF-8" standalone="no"?>
<svg
   xmlns:dc="http://purl.org/dc/elements/1.1/"
   xmlns:cc="http://creativecommons.org/ns#"
   xmlns:rdf="http://www.w3.org/1999/02/22-rdf-syntax-ns#"
   xmlns:svg="http://www.w3.org/2000/svg"
   xmlns="http://www.w3.org/2000/svg"
   version="1.1"
   viewBox="0 0 400 399.99999"
   height="400"
   width="400"
   id="svg">
  <metadata
     id="metadata9">
    <rdf:RDF>
      <cc:Work
         rdf:about="">
        <dc:format>image/svg+xml</dc:format>
        <dc:type
           rdf:resource="http://purl.org/dc/dcmitype/StillImage" />
        <dc:title></dc:title>
      </cc:Work>
    </rdf:RDF>
  </metadata>
  <defs
     id="defs7" />
  <g
     transform="translate(0,139.02069)"
     id="svgg">
    <path
       style="fill:#000000;fill-rule:evenodd;stroke:none"
       d="m 118.997,12.593 c -2.595,6.926 -4.923,13.148 -5.173,13.827 -0.336,0.912 1.326,1.234 6.373,1.234 h 6.827 l 9.081,-13.264 c 4.994,-7.296 9.08,-13.518 9.08,-13.828 C 145.185,0.253 140.354,0 134.45,0 h -10.735 l -4.718,12.593 m 57.803,39.506 0.009,51.111 2.354,5.054 c 4.23,9.085 12.492,13.217 26.426,13.217 h 7.744 v -8.888 -8.889 h -5.477 c -4.498,0 -5.91,-0.434 -7.901,-2.425 l -2.424,-2.424 V 49.921 0.988 H 187.16 176.79 l 0.01,51.111 m 119.496,-32.84 v 18.272 h 9.877 9.876 V 19.259 0.988 h -9.876 -9.877 V 19.259 M 108.991,38.522 c -29.799,9.724 -33.135,66.052 -4.709,79.5 14.87,7.034 36.732,4.375 48.064,-5.848 3.598,-3.246 3.613,-3.2 -3.187,-9.929 l -5.904,-5.842 -2.245,2.053 c -12.748,11.66 -35.331,5.249 -35.331,-10.029 v -2.501 h 26.173 26.173 v -8.188 c 0,-30.221 -22.198,-47.974 -49.034,-39.216 M 246.19,38.418 c -16.456,6.103 -22.332,16.615 -22.418,40.101 -0.061,16.686 1.249,22.922 6.269,29.853 14.089,19.448 49.184,17.34 59.79,-3.592 5.282,-10.423 6.132,-35.859 1.594,-47.714 C 285.265,40.973 263.498,31.999 246.19,38.418 M 1.285,40.741 c 0.722,1.765 7.728,20.652 15.569,41.971 l 14.257,38.762 8.043,0.004 c 6.745,0.003 8.151,-0.275 8.72,-1.725 0.372,-0.951 7.056,-19.062 14.851,-40.247 7.796,-21.185 14.481,-39.311 14.856,-40.28 0.632,-1.637 -0.112,-1.742 -10.45,-1.482 L 56,38.025 47.586,63.704 39.171,89.383 30.707,63.457 22.243,37.531 H 11.108 -0.027 l 1.312,3.21 m 339.456,-1.482 c 0,0.758 16.814,48.921 17.247,49.402 0.257,0.286 17.321,-48.508 17.321,-49.529 0,-0.338 -7.778,-0.613 -17.284,-0.613 -9.506,0 -17.284,0.333 -17.284,0.74 m -24.629,40.988 -0.063,41.234 h 16.402 c 12.736,0 16.288,-0.275 15.891,-1.234 -0.281,-0.679 -7.268,-18.346 -15.527,-39.259 -8.259,-20.914 -15.381,-38.914 -15.828,-40 -0.447,-1.087 -0.841,16.58 -0.875,39.259 m 69.567,-5.517 c -7.605,19.366 -14.821,37.807 -16.036,40.981 l -2.209,5.77 H 383.717 400 V 80.494 c 0,-22.543 -0.111,-40.985 -0.247,-40.981 -0.136,0.003 -6.469,15.851 -14.074,35.217 M 128.429,55.556 c 4.84,2.443 8.811,8.21 8.839,12.839 l 0.016,2.716 h -15.803 -15.802 v -2.26 c 0,-7.061 8.612,-15.518 15.802,-15.518 1.4,0 4.526,1 6.948,2.223 m 138.339,1.998 c 10.802,7.227 9.123,39.806 -2.297,44.554 -14.759,6.136 -24.31,-11.313 -19.247,-35.165 2.132,-10.043 13.294,-14.908 21.544,-9.389"
       id="path0" />
  </g>
</svg>
