<svg id="svg" xmlns="http://www.w3.org/2000/svg" xmlns:xlink="http://www.w3.org/1999/xlink" width="400" height="413.5593220338983" viewBox="0, 0, 400,413.5593220338983"><g id="svgg"><path id="path0" d="M13.559 33.898 C 13.559 35.805,23.041 37.288,35.225 37.288 L 56.891 37.288 61.863 50.000 C 64.598 56.992,94.018 134.096,127.240 221.343 C 179.629 358.924,188.505 379.842,194.125 378.970 C 199.337 378.163,211.510 349.098,256.304 230.508 C 286.937 149.407,315.917 72.754,320.704 60.169 L 329.406 37.288 351.144 37.288 C 363.376 37.288,372.881 35.806,372.881 33.898 C 372.881 31.784,353.107 30.508,320.339 30.508 C 287.571 30.508,267.797 31.784,267.797 33.898 C 267.797 35.861,278.652 37.288,293.583 37.288 C 312.772 37.288,318.976 38.372,317.832 41.525 C 300.254 89.977,215.721 311.756,215.084 311.092 C 213.832 309.788,114.720 50.425,112.720 43.220 C 111.256 37.946,113.936 37.288,136.893 37.288 C 151.846 37.288,162.712 35.861,162.712 33.898 C 162.712 31.741,135.593 30.508,88.136 30.508 C 40.678 30.508,13.559 31.741,13.559 33.898 " stroke="none" fill="#000000" fill-rule="evenodd"></path></g></svg>