<?xml version="1.0" encoding="UTF-8" standalone="no"?>
<svg
   xmlns:dc="http://purl.org/dc/elements/1.1/"
   xmlns:cc="http://creativecommons.org/ns#"
   xmlns:rdf="http://www.w3.org/1999/02/22-rdf-syntax-ns#"
   xmlns:svg="http://www.w3.org/2000/svg"
   xmlns="http://www.w3.org/2000/svg"
   viewBox="0 0 306.000000 465.000000"
   version="1.1"
   id="logo">
  <g
     style="stroke:none"
     id="g6"
     transform="matrix(0.1,0,0,-0.1,0,465)"
     fill="#FFFFFF">
    <path
       id="path2"
       d="M 0,3200 V 1750 h 218 218 l 12,69 c 6,39 28,117 47,175 19,58 35,110 35,115 0,7 -26,11 -65,11 h -65 v 471 471 l 498,-5 c 526,-5 568,-8 691,-57 44,-17 55,-17 186,-3 130,13 225,12 349,-4 l 49,-6 -28,37 c -73,96 -237,193 -387,230 l -89,22 58,18 c 272,85 444,305 460,591 24,413 -264,699 -760,754 -59,7 -354,11 -762,11 H 0 Z m 1433,1064 c 208,-47 330,-177 344,-369 13,-180 -59,-322 -204,-398 -135,-70 -133,-70 -680,-74 l -493,-4 v 430 431 h 481 c 405,0 491,-3 552,-16 z" />
    <path
       id="path4"
       d="M 1790,2949 C 1006,2859 435,2193 474,1415 493,1029 636,703 905,435 1306,33 1887,-101 2441,80 c 184,61 445,216 576,343 l 42,40 -106,116 c -59,64 -112,122 -119,130 -11,12 -19,9 -51,-20 -59,-53 -160,-123 -245,-168 -589,-319 -1281,-96 -1564,503 -133,282 -135,641 -6,926 47,104 148,247 233,331 337,334 832,417 1258,213 120,-57 217,-121 298,-198 l 65,-60 23,30 c 12,16 64,79 114,139 50,61 91,113 91,116 0,15 -128,123 -213,179 -306,203 -678,291 -1047,249 z" />
  </g>
</svg>
